<mxfile host="app.diagrams.net" modified="2021-07-25T16:57:59.332Z" agent="5.0 (Windows NT 10.0; Win64; x64) AppleWebKit/537.36 (KHTML, like Gecko) Chrome/91.0.4472.164 Safari/537.36" etag="qw9f2VGHO1mlTowBsAq7" version="14.7.7" type="github">
  <diagram id="PrDXNrodq-6Ym41rL6lG" name="Page-1">
    <mxGraphModel dx="813" dy="441" grid="1" gridSize="10" guides="1" tooltips="1" connect="1" arrows="1" fold="1" page="1" pageScale="1" pageWidth="827" pageHeight="1169" math="0" shadow="0">
      <root>
        <mxCell id="0" />
        <mxCell id="1" parent="0" />
        <mxCell id="9ZSXqyVSEwkqPgxAhCas-53" style="edgeStyle=orthogonalEdgeStyle;curved=1;orthogonalLoop=1;jettySize=auto;html=1;exitX=0.5;exitY=0;exitDx=0;exitDy=0;entryX=0.5;entryY=1;entryDx=0;entryDy=0;" edge="1" parent="1" source="9ZSXqyVSEwkqPgxAhCas-37" target="9ZSXqyVSEwkqPgxAhCas-49">
          <mxGeometry relative="1" as="geometry" />
        </mxCell>
        <mxCell id="9ZSXqyVSEwkqPgxAhCas-37" value="" style="shape=image;verticalLabelPosition=bottom;labelBackgroundColor=#ffffff;verticalAlign=top;aspect=fixed;imageAspect=0;image=data:image/svg+xml,PHN2ZyB4bWxuczpkYz0iaHR0cDovL3B1cmwub3JnL2RjL2VsZW1lbnRzLzEuMS8iIHhtbG5zOmNjPSJodHRwOi8vY3JlYXRpdmVjb21tb25zLm9yZy9ucyMiIHhtbG5zOnJkZj0iaHR0cDovL3d3dy53My5vcmcvMTk5OS8wMi8yMi1yZGYtc3ludGF4LW5zIyIgeG1sbnM6c3ZnPSJodHRwOi8vd3d3LnczLm9yZy8yMDAwL3N2ZyIgeG1sbnM9Imh0dHA6Ly93d3cudzMub3JnLzIwMDAvc3ZnIiB4bWxuczpzb2RpcG9kaT0iaHR0cDovL3NvZGlwb2RpLnNvdXJjZWZvcmdlLm5ldC9EVEQvc29kaXBvZGktMC5kdGQiIHhtbG5zOmlua3NjYXBlPSJodHRwOi8vd3d3Lmlua3NjYXBlLm9yZy9uYW1lc3BhY2VzL2lua3NjYXBlIiB2ZXJzaW9uPSIxLjEiIGlkPSJzdmc5MTkyNSIgaW5rc2NhcGU6dmVyc2lvbj0iMC45Mi4zICgyNDA1NTQ2LCAyMDE4LTAzLTExKSIgc29kaXBvZGk6ZG9jbmFtZT0ic3FsX2FkYXB0ZXIuc3ZnIiB4PSIwcHgiIHk9IjBweCIgdmlld0JveD0iMCAwIDYxLjUgNzAuNDciIHN0eWxlPSJlbmFibGUtYmFja2dyb3VuZDpuZXcgMCAwIDYxLjUgNzAuNDc7IiB4bWw6c3BhY2U9InByZXNlcnZlIj48bWV0YWRhdGEgaWQ9Im1ldGFkYXRhNDI4MiI+PHJkZjpSREY+PGNjOldvcmsgcmRmOmFib3V0PSIiPjxkYzpmb3JtYXQ+aW1hZ2Uvc3ZnK3htbDwvZGM6Zm9ybWF0PjxkYzp0eXBlIHJkZjpyZXNvdXJjZT0iaHR0cDovL3B1cmwub3JnL2RjL2RjbWl0eXBlL1N0aWxsSW1hZ2UiLz48ZGM6dGl0bGUvPjwvY2M6V29yaz48L3JkZjpSREY+PC9tZXRhZGF0YT48ZGVmcyBpZD0iZGVmczQyODAiPiYjeGE7CSYjeGE7CSYjeGE7JiN4YTsJCSYjeGE7CQkmI3hhOwkJJiN4YTsJJiN4YTsJCQkmI3hhOwkJCSYjeGE7CQkJJiN4YTsJCQkmI3hhOwkJCSYjeGE7CQkJJiN4YTsJCQkmI3hhOwkJCSYjeGE7CQkJJiN4YTsJCQkmI3hhOwkJJiN4YTsJCQkmI3hhOwkJCSYjeGE7CQkJJiN4YTsJCQkmI3hhOwkJCSYjeGE7CQkJJiN4YTsJCSYjeGE7CQkJCSYjeGE7CQkJCSYjeGE7CQkJCQkmI3hhOwkJCSYjeGE7CQkJCSYjeGE7CQkJCSYjeGE7CQkJCQkmI3hhOwkJCSYjeGE7CQkJCSYjeGE7CQkJCSYjeGE7CQkJCQkmI3hhOwkJCSYjeGE7CQkJCSYjeGE7CQkJCSYjeGE7CQkJCQkmI3hhOwkJCSYjeGE7CQkJCSYjeGE7CQkJCSYjeGE7CQkJCQkmI3hhOwkJCSYjeGE7CQkJCSYjeGE7CQkJCSYjeGE7CQkJCSYjeGE7CQkJJiN4YTsJCQkJJiN4YTsJCQkJJiN4YTsJCQkJJiN4YTsJCQkmI3hhOwkJCQkmI3hhOwkJCQkmI3hhOwkJCQkmI3hhOwkJCSYjeGE7CQkJCSYjeGE7CQkJCSYjeGE7CQkJCSYjeGE7CQkJJiN4YTsJCQkJJiN4YTsJCQkJJiN4YTsJCQkJJiN4YTsJCQkmI3hhOwkJCQkmI3hhOwkJCQkmI3hhOwkJCQkmI3hhOwkJCSYjeGE7CQkJCSYjeGE7CQkJCSYjeGE7CQkJCSYjeGE7CQkJJiN4YTsJCQkJJiN4YTsJCQkJJiN4YTsJCQkJJiN4YTsJCQkmI3hhOwkJCQkmI3hhOwkJCQkmI3hhOwkJCQkmI3hhOwkJCSYjeGE7CQkJCQkmI3hhOwkJCQkmI3hhOwkJCQkJJiN4YTsJCQkJJiN4YTsJCQkJCSYjeGE7CQkJCSYjeGE7CQkJCQkmI3hhOwkJCQkmI3hhOwkJCQkJJiN4YTsJCQkJJiN4YTsJCQkJCSYjeGE7CQkJCSYjeGE7CQkJCQkmI3hhOwkJCQkmI3hhOwkJCQkJJiN4YTsJCQkJJiN4YTsJCQkJCSYjeGE7CQkJCSYjeGE7CQkJCQkJJiN4YTsJCQkJCSYjeGE7CQkJCQkJJiN4YTsJCQkJCSYjeGE7CQkJCQkJJiN4YTsJCQkJCSYjeGE7CQkJCQkJJiN4YTsJCQkJCSYjeGE7CQkJCQkJJiN4YTsJCQkJCSYjeGE7CQkJCQkJJiN4YTsJCQkJCSYjeGE7CQkJCQkJJiN4YTsJCQkJCSYjeGE7CQkJCQkJJiN4YTsJCQkJCTwvZGVmcz4mI3hhOzxmaWx0ZXIgaWQ9ImZpbHRlcl8yIj4mI3hhOwk8ZmVHYXVzc2lhbkJsdXIgaWQ9ImZlR2F1c3NpYW5CbHVyOTE4MTEiIHN0ZERldmlhdGlvbj0iMiIvPiYjeGE7PC9maWx0ZXI+JiN4YTs8c29kaXBvZGk6bmFtZWR2aWV3IGJvcmRlcmNvbG9yPSIjNjY2NjY2IiBib3JkZXJvcGFjaXR5PSIxIiBmaXQtbWFyZ2luLWJvdHRvbT0iMCIgZml0LW1hcmdpbi1sZWZ0PSIwIiBmaXQtbWFyZ2luLXJpZ2h0PSIwIiBmaXQtbWFyZ2luLXRvcD0iMCIgZ3JpZHRvbGVyYW5jZT0iMTAiIGd1aWRldG9sZXJhbmNlPSIxMCIgaWQ9Im5hbWVkdmlldzkxOTI3IiBpbmtzY2FwZTpjdXJyZW50LWxheWVyPSJzdmc5MTkyNSIgaW5rc2NhcGU6Y3g9Ii0yOS4yMzExNzkiIGlua3NjYXBlOmN5PSIzMS45MTA0MjkiIGlua3NjYXBlOnBhZ2VvcGFjaXR5PSIwIiBpbmtzY2FwZTpwYWdlc2hhZG93PSIyIiBpbmtzY2FwZTp3aW5kb3ctaGVpZ2h0PSIxMDE3IiBpbmtzY2FwZTp3aW5kb3ctbWF4aW1pemVkPSIxIiBpbmtzY2FwZTp3aW5kb3ctd2lkdGg9IjE5MjAiIGlua3NjYXBlOndpbmRvdy14PSItOCIgaW5rc2NhcGU6d2luZG93LXk9Ii04IiBpbmtzY2FwZTp6b29tPSI1LjUwOTQ0OTgiIG9iamVjdHRvbGVyYW5jZT0iMTAiIHBhZ2Vjb2xvcj0iI2ZmZmZmZiIgc2hvd2dyaWQ9ImZhbHNlIj4mI3hhOwk8L3NvZGlwb2RpOm5hbWVkdmlldz4mI3hhOzxwYXRoIGlkPSJwYXRoOTE4MjMiIGlua3NjYXBlOmNvbm5lY3Rvci1jdXJ2YXR1cmU9IjAiIHN0eWxlPSJmaWxsOm5vbmU7c3Ryb2tlOiM1NTZhOGE7c3Ryb2tlLXdpZHRoOjEuNTtzdHJva2UtbWl0ZXJsaW1pdDozIiBkPSJtIDI3Ljc1NDIsNjUuMjE5MTM2IHYgLTI5LjI1Ii8+PHBhdGggaWQ9InBhdGg5MTgyOCIgaW5rc2NhcGU6Y29ubmVjdG9yLWN1cnZhdHVyZT0iMCIgc3R5bGU9ImZpbGw6bm9uZTtzdHJva2U6IzU1NmE4YTtzdHJva2Utd2lkdGg6MS41O3N0cm9rZS1taXRlcmxpbWl0OjMiIGQ9Im0gMzMuNzQ2MDAxLDM1Ljk2OTEzNyB2IDI3Ii8+PHBhdGggaWQ9InBhdGg5MTgzMyIgaW5rc2NhcGU6Y29ubmVjdG9yLWN1cnZhdHVyZT0iMCIgc3R5bGU9ImZpbGw6bm9uZTtzdHJva2U6IzU1NmE4YTtzdHJva2Utd2lkdGg6MS41O3N0cm9rZS1taXRlcmxpbWl0OjMiIGQ9Im0gNjEuNSw2MC43MTUzMzggLTYxLjUsMCIvPjxwYXRoIGlkPSJwYXRoOTE4MzgiIGlua3NjYXBlOmNvbm5lY3Rvci1jdXJ2YXR1cmU9IjAiIHN0eWxlPSJmaWxsOm5vbmU7c3Ryb2tlOiM1NTZhOGE7c3Ryb2tlLXdpZHRoOjEuNTtzdHJva2UtbWl0ZXJsaW1pdDozIiBkPSJtIDYxLjUsNjYuNzE1MzM4IC02MS41LDAiLz48cGF0aCBpZD0icGF0aDkxODQzIiBpbmtzY2FwZTpjb25uZWN0b3ItY3VydmF0dXJlPSIwIiBzdHlsZT0iZmlsbDojOTI3M2I2O3N0cm9rZTojNTU2YThhO3N0cm9rZS13aWR0aDoxLjU7c3Ryb2tlLW1pdGVybGltaXQ6MyIgZD0ibSAyMS43NSw2Ni43MjMzMzcgYyAwLDEuNjYgMS4zNCwzIDMsMyBoIDEyIGMgMS42NiwwIDMsLTEuMzQgMywtMyB2IC02IGMgMCwtMS42NiAtMS4zNCwtMyAtMywtMyBoIC0xMiBjIC0xLjY2LDAgLTMsMS4zNCAtMywzIHoiLz48cGF0aCBpZD0icGF0aDkxODU0IiBpbmtzY2FwZTpjb25uZWN0b3ItY3VydmF0dXJlPSIwIiBzdHlsZT0iZmlsbDojMDA3MmM2IiBkPSJtIDE0LjAyNzUsNi4wNTkxMzcgdiAzMi4yMiBjIDAsMy4zNCA3LjQ5LDYuMDYgMTYuNzIsNi4wNiB2IC0zOC4yOCB6Ii8+PHBhdGggaWQ9InBhdGg5MTg2MiIgaW5rc2NhcGU6Y29ubmVjdG9yLWN1cnZhdHVyZT0iMCIgc3R5bGU9ImZpbGw6IzAwNzJjNiIgZD0ibSAzMC41MjA3LDQ0LjMzODI0NSBoIDAuMjMgYyA5LjIzLDAgMTYuNzIsLTIuNzEgMTYuNzIsLTYuMDYgdiAtMzIuMjIgaCAtMTYuOTUgeiIvPjxwYXRoIGlkPSJwYXRoOTE4NzAiIGlua3NjYXBlOmNvbm5lY3Rvci1jdXJ2YXR1cmU9IjAiIHN0eWxlPSJmaWxsOiNmZmZmZmY7ZmlsbC1vcGFjaXR5OjAuMTUiIGQ9Im0gMzAuNTIwNyw0NC4zMzgyNDUgaCAwLjIzIGMgOS4yMywwIDE2LjcyLC0yLjcxIDE2LjcyLC02LjA2IHYgLTMyLjIyIGggLTE2Ljk1IHoiLz48cGF0aCBpZD0icGF0aDkxODc4IiBpbmtzY2FwZTpjb25uZWN0b3ItY3VydmF0dXJlPSIwIiBzdHlsZT0iZmlsbDojZmZmZmZmIiBkPSJtIDQ3LjQ3NzUsNi4wNTk5MzcgYyAwLDMuMzQgLTcuNDksNi4wNiAtMTYuNzMsNi4wNiAtOS4yMywwIC0xNi43MiwtMi43MiAtMTYuNzIsLTYuMDYgMCwtMy4zNSA3LjQ5LC02LjA2IDE2LjcyLC02LjA2IDkuMjQsMCAxNi43MywyLjcxIDE2LjczLDYuMDYgeiIvPjxwYXRoIGlkPSJwYXRoOTE4ODYiIGlua3NjYXBlOmNvbm5lY3Rvci1jdXJ2YXR1cmU9IjAiIHN0eWxlPSJmaWxsOiM3ZmJhMDAiIGQ9Im0gNDQuMDU1NTIsNS43MTEwMzcgYyAwLDIuMjEgLTUuOTYsNCAtMTMuMzEsNCAtNy4zNCwwIC0xMy4zLC0xLjc5IC0xMy4zLC00IDAsLTIuMjEgNS45NiwtNCAxMy4zLC00IDcuMzUsMCAxMy4zMSwxLjc5IDEzLjMxLDQgeiIvPjxwYXRoIGlkPSJwYXRoOTE4OTQiIGlua3NjYXBlOmNvbm5lY3Rvci1jdXJ2YXR1cmU9IjAiIHN0eWxlPSJmaWxsOiNiOGQ0MzIiIGQ9Im0gNDEuMjY2NDEsOC4xNTY4MzcgYyAxLjc0LC0wLjY4IDIuNzksLTEuNTMgMi43OSwtMi40NCAwLC0yLjIxIC01Ljk2LC00IC0xMy4zMSwtNCAtNy4zNCwwIC0xMy4zLDEuNzkgLTEzLjMsNCAwLDAuOTEgMS4wNSwxLjc2IDIuNzksMi40NCAyLjQzLC0wLjk1IDYuMjMsLTEuNTYgMTAuNTEsLTEuNTYgNC4yOSwwIDguMDksMC42MSAxMC41MiwxLjU2IHoiLz48cGF0aCBzdHlsZT0ib3BhY2l0eTowLjIyMDAwMDAyO2ZpbGw6IzViOWJkNTtmaWx0ZXI6dXJsKCNmaWx0ZXJfMikiIGQ9Im0gMjUuNzgwODMsMzAuNDAwODM3IGMgMCwxIC0wLjM2LDEuNzcgLTEuMDksMi4zMiAtMC43MiwwLjU1IC0xLjcyLDAuODMgLTMuMDEsMC44MyAtMS4wOCwwIC0xLjk5LC0wLjIgLTIuNzMsLTAuNTkgdiAtMi4zNiBjIDAuODUsMC43MiAxLjc4LDEuMDggMi43OSwxLjA4IDAuNDksMCAwLjg3LC0wLjEgMS4xNCwtMC4zIDAuMjcsLTAuMTkgMC40LC0wLjQ1IDAuNCwtMC43OCAwLC0wLjMyIC0wLjEzLC0wLjU5IC0wLjM4LC0wLjgzIC0wLjI2LC0wLjI0IC0wLjc5LC0wLjU0IC0xLjU4LC0wLjkxIC0xLjYxLC0wLjc2IC0yLjQxLC0xLjc5IC0yLjQxLC0zLjA5IDAsLTAuOTUgMC4zNSwtMS43MSAxLjA1LC0yLjI4IDAuNywtMC41NyAxLjY0LC0wLjg2IDIuOCwtMC44NiAxLjAzLDAgMS44OCwwLjE0IDIuNTYsMC40MSB2IDIuMiBjIC0wLjcxLC0wLjQ5IC0xLjUyLC0wLjc0IC0yLjQzLC0wLjc0IC0wLjQ1LDAgLTAuODEsMC4xIC0xLjA4LDAuMjkgLTAuMjYsMC4yIC0wLjQsMC40NSAtMC40LDAuNzggMCwwLjMzIDAuMTEsMC42IDAuMzIsMC44MiAwLjIyLDAuMjEgMC42NiwwLjQ4IDEuMzIsMC43OSAwLjk4LDAuNDcgMS42OSwwLjk0IDIuMTEsMS40MiAwLjQxLDAuNDggMC42MiwxLjA4IDAuNjIsMS44IHoiIGlkPSJwYXRoNDI1OCIgaW5rc2NhcGU6Y29ubmVjdG9yLWN1cnZhdHVyZT0iMCIvPjxwYXRoIGlkPSJwYXRoOTE5MDIiIGlua3NjYXBlOmNvbm5lY3Rvci1jdXJ2YXR1cmU9IjAiIHN0eWxlPSJmaWxsOiNmZmZmZmYiIGQ9Im0gMjUuNDM1MjMsMjguNDI4MDM3IGMgMCwxIC0wLjM2LDEuNzcgLTEuMDksMi4zMiAtMC43MiwwLjU1IC0xLjcyLDAuODMgLTMuMDEsMC44MyAtMS4wOCwwIC0xLjk5LC0wLjIgLTIuNzMsLTAuNTkgdiAtMi4zNiBjIDAuODUsMC43MiAxLjc4LDEuMDggMi43OSwxLjA4IDAuNDksMCAwLjg3LC0wLjEgMS4xNCwtMC4zIDAuMjcsLTAuMTkgMC40LC0wLjQ1IDAuNCwtMC43OCAwLC0wLjMyIC0wLjEzLC0wLjU5IC0wLjM4LC0wLjgzIC0wLjI2LC0wLjI0IC0wLjc5LC0wLjU0IC0xLjU4LC0wLjkxIC0xLjYxLC0wLjc2IC0yLjQxLC0xLjc5IC0yLjQxLC0zLjA5IDAsLTAuOTUgMC4zNSwtMS43MSAxLjA1LC0yLjI4IDAuNywtMC41NyAxLjY0LC0wLjg2IDIuOCwtMC44NiAxLjAzLDAgMS44OCwwLjE0IDIuNTYsMC40MSB2IDIuMiBjIC0wLjcxLC0wLjQ5IC0xLjUyLC0wLjc0IC0yLjQzLC0wLjc0IC0wLjQ1LDAgLTAuODEsMC4xIC0xLjA4LDAuMjkgLTAuMjYsMC4yIC0wLjQsMC40NSAtMC40LDAuNzggMCwwLjMzIDAuMTEsMC42IDAuMzIsMC44MiAwLjIyLDAuMjEgMC42NiwwLjQ4IDEuMzIsMC43OSAwLjk4LDAuNDcgMS42OSwwLjk0IDIuMTEsMS40MiAwLjQxLDAuNDggMC42MiwxLjA4IDAuNjIsMS44IHoiLz48cGF0aCBkPSJtIDM3LjEzODgsMjguMDExNjM3IGMgMCwxLjI0IC0wLjI4LDIuMzIgLTAuODUsMy4yMyAtMC41NiwwLjkxIC0xLjM1LDEuNTUgLTIuMzgsMS45MiBsIDMuMDYsMi44NCBoIC0zLjA5IGwgLTIuMTksLTIuNDYgYyAtMC45MywtMC4wMyAtMS43OCwtMC4yOCAtMi41MywtMC43NCAtMC43NSwtMC40NiAtMS4zNCwtMS4wOSAtMS43NSwtMS44OSAtMC40LC0wLjgxIC0wLjYxLC0xLjcgLTAuNjEsLTIuNjkgMCwtMS4wOSAwLjIyLC0yLjA3IDAuNjcsLTIuOTIgMC40NCwtMC44NiAxLjA2LC0xLjUyIDEuODcsLTEuOTggMC44LC0wLjQ2IDEuNzIsLTAuNjkgMi43NywtMC42OSAwLjk3LDAgMS44NCwwLjIyIDIuNiwwLjY3IDAuNzcsMC40NSAxLjM3LDEuMDggMS43OSwxLjkxIDAuNDMsMC44MiAwLjY0LDEuNzYgMC42NCwyLjggeiBtIC0yLjUsMC4xMyBjIDAsLTEuMDcgLTAuMjMsLTEuOTEgLTAuNywtMi41MyAtMC40NywtMC42MiAtMS4xLC0wLjkzIC0xLjkxLC0wLjkzIC0wLjgzLDAgLTEuNDksMC4zMSAtMS45OCwwLjkzIC0wLjUsMC42MiAtMC43NSwxLjQ1IC0wLjc1LDIuNDkgMCwxLjAzIDAuMjUsMS44NSAwLjczLDIuNDcgMC40OSwwLjYxIDEuMTMsMC45MiAxLjk0LDAuOTIgMC44MiwwIDEuNDcsLTAuMyAxLjk1LC0wLjg5IDAuNDgsLTAuNiAwLjcyLC0xLjQyIDAuNzIsLTIuNDYgeiIgc3R5bGU9ImZpbGw6IzViOWJkNTtmaWxsLW9wYWNpdHk6MC4yMjAwMDAwMiIgaW5rc2NhcGU6Y29ubmVjdG9yLWN1cnZhdHVyZT0iMCIgaWQ9InBhdGg5MTkwNyIvPjxwYXRoIGlkPSJwYXRoOTE5MTAiIGlua3NjYXBlOmNvbm5lY3Rvci1jdXJ2YXR1cmU9IjAiIHN0eWxlPSJmaWxsOiNmZmZmZmYiIGQ9Im0gMzYuNzkzMiwyNi4wMzg4MzcgYyAwLDEuMjQgLTAuMjgsMi4zMiAtMC44NSwzLjIzIC0wLjU2LDAuOTEgLTEuMzUsMS41NSAtMi4zOCwxLjkyIGwgMy4wNiwyLjg0IGggLTMuMDkgbCAtMi4xOSwtMi40NiBjIC0wLjkzLC0wLjAzIC0xLjc4LC0wLjI4IC0yLjUzLC0wLjc0IC0wLjc1LC0wLjQ2IC0xLjM0LC0xLjA5IC0xLjc1LC0xLjg5IC0wLjQsLTAuODEgLTAuNjEsLTEuNyAtMC42MSwtMi42OSAwLC0xLjA5IDAuMjIsLTIuMDcgMC42NywtMi45MiAwLjQ0LC0wLjg2IDEuMDYsLTEuNTIgMS44NywtMS45OCAwLjgsLTAuNDYgMS43MiwtMC42OSAyLjc3LC0wLjY5IDAuOTcsMCAxLjg0LDAuMjIgMi42LDAuNjcgMC43NywwLjQ1IDEuMzcsMS4wOCAxLjc5LDEuOTEgMC40MywwLjgyIDAuNjQsMS43NiAwLjY0LDIuOCB6IG0gLTIuNSwwLjEzIGMgMCwtMS4wNyAtMC4yMywtMS45MSAtMC43LC0yLjUzIC0wLjQ3LC0wLjYyIC0xLjEsLTAuOTMgLTEuOTEsLTAuOTMgLTAuODMsMCAtMS40OSwwLjMxIC0xLjk4LDAuOTMgLTAuNSwwLjYyIC0wLjc1LDEuNDUgLTAuNzUsMi40OSAwLDEuMDMgMC4yNSwxLjg1IDAuNzMsMi40NyAwLjQ5LDAuNjEgMS4xMywwLjkyIDEuOTQsMC45MiAwLjgyLDAgMS40NywtMC4zIDEuOTUsLTAuODkgMC40OCwtMC42IDAuNzIsLTEuNDIgMC43MiwtMi40NiB6Ii8+PHBvbHlnb24gc3R5bGU9Im9wYWNpdHk6MC4yMjAwMDAwMjtmaWxsOiM1YjliZDU7ZmlsdGVyOnVybCgjZmlsdGVyXzIpIiBwb2ludHM9IjYuMjgsODMuNDYgMCw4My40NiAwLDcyLjkgMi4zOCw3Mi45IDIuMzgsODEuNTMgNi4yOCw4MS41MyAiIGlkPSJwb2x5Z29uNDI3MCIgdHJhbnNmb3JtPSJ0cmFuc2xhdGUoMzguODgzNiwtNTAuMDkyOTYzKSIvPjxwYXRoIGlkPSJwYXRoOTE5MTgiIGlua3NjYXBlOmNvbm5lY3Rvci1jdXJ2YXR1cmU9IjAiIHN0eWxlPSJmaWxsOiNmZmZmZmYiIGQ9Im0gNDQuODE4LDMxLjM5NDIzNyBoIC02LjI4IHYgLTEwLjU2IGggMi4zOCB2IDguNjMgaCAzLjkgeiIvPiYjeGE7PC9zdmc+;" vertex="1" parent="1">
          <mxGeometry x="377.5" y="500" width="62" height="70" as="geometry" />
        </mxCell>
        <mxCell id="9ZSXqyVSEwkqPgxAhCas-44" value="" style="group" vertex="1" connectable="0" parent="1">
          <mxGeometry x="510" y="694.75" width="273.38" height="140.5" as="geometry" />
        </mxCell>
        <mxCell id="9ZSXqyVSEwkqPgxAhCas-43" value="" style="rounded=1;whiteSpace=wrap;html=1;" vertex="1" parent="9ZSXqyVSEwkqPgxAhCas-44">
          <mxGeometry x="3.3799999999999955" width="216.62" height="140" as="geometry" />
        </mxCell>
        <mxCell id="9ZSXqyVSEwkqPgxAhCas-42" value="" style="group" vertex="1" connectable="0" parent="9ZSXqyVSEwkqPgxAhCas-44">
          <mxGeometry y="10" width="273.38" height="130.5" as="geometry" />
        </mxCell>
        <mxCell id="9ZSXqyVSEwkqPgxAhCas-6" value="" style="shape=image;verticalLabelPosition=bottom;labelBackgroundColor=#ffffff;verticalAlign=top;aspect=fixed;imageAspect=0;image=data:image/svg+xml,PHN2ZyB4bWxuczpjYz0iaHR0cDovL2NyZWF0aXZlY29tbW9ucy5vcmcvbnMjIiB4bWxuczpkYz0iaHR0cDovL3B1cmwub3JnL2RjL2VsZW1lbnRzLzEuMS8iIHhtbG5zOmlua3NjYXBlPSJodHRwOi8vd3d3Lmlua3NjYXBlLm9yZy9uYW1lc3BhY2VzL2lua3NjYXBlIiB4bWxuczpyZGY9Imh0dHA6Ly93d3cudzMub3JnLzE5OTkvMDIvMjItcmRmLXN5bnRheC1ucyMiIHhtbG5zOnNvZGlwb2RpPSJodHRwOi8vc29kaXBvZGkuc291cmNlZm9yZ2UubmV0L0RURC9zb2RpcG9kaS0wLmR0ZCIgeG1sbnM6c3ZnPSJodHRwOi8vd3d3LnczLm9yZy8yMDAwL3N2ZyIgeG1sbnM9Imh0dHA6Ly93d3cudzMub3JnLzIwMDAvc3ZnIiB4bWxuczp4bGluaz0iaHR0cDovL3d3dy53My5vcmcvMTk5OS94bGluayIgdmVyc2lvbj0iMS4xIiBpZD0ic3ZnOTAxOTEiIGlua3NjYXBlOnZlcnNpb249IjAuOTIuMyAoMjQwNTU0NiwgMjAxOC0wMy0xMSkiIHNvZGlwb2RpOmRvY25hbWU9InNlcnZpY2VzLnN2ZyIgeD0iMHB4IiB5PSIwcHgiIHZpZXdCb3g9IjAgMCA1Ni4yNiA0NS42OCIgc3R5bGU9ImVuYWJsZS1iYWNrZ3JvdW5kOm5ldyAwIDAgNTYuMjYgNDUuNjg7IiB4bWw6c3BhY2U9InByZXNlcnZlIj4mI3hhOzxzb2RpcG9kaTpuYW1lZHZpZXcgYm9yZGVyY29sb3I9IiM2NjY2NjYiIGJvcmRlcm9wYWNpdHk9IjEiIGZpdC1tYXJnaW4tYm90dG9tPSIwIiBmaXQtbWFyZ2luLWxlZnQ9IjAiIGZpdC1tYXJnaW4tcmlnaHQ9IjAiIGZpdC1tYXJnaW4tdG9wPSIwIiBncmlkdG9sZXJhbmNlPSIxMCIgZ3VpZGV0b2xlcmFuY2U9IjEwIiBpZD0ibmFtZWR2aWV3OTAxOTMiIGlua3NjYXBlOmN1cnJlbnQtbGF5ZXI9InN2ZzkwMTkxIiBpbmtzY2FwZTpjeD0iMzIuNzA3NDM1IiBpbmtzY2FwZTpjeT0iMTIuNzc0NzU4IiBpbmtzY2FwZTpwYWdlb3BhY2l0eT0iMCIgaW5rc2NhcGU6cGFnZXNoYWRvdz0iMiIgaW5rc2NhcGU6d2luZG93LWhlaWdodD0iMTAxNyIgaW5rc2NhcGU6d2luZG93LW1heGltaXplZD0iMSIgaW5rc2NhcGU6d2luZG93LXdpZHRoPSIxOTIwIiBpbmtzY2FwZTp3aW5kb3cteD0iLTgiIGlua3NjYXBlOndpbmRvdy15PSItOCIgaW5rc2NhcGU6em9vbT0iNi44OTEyMjIyIiBvYmplY3R0b2xlcmFuY2U9IjEwIiBwYWdlY29sb3I9IiNmZmZmZmYiIHNob3dncmlkPSJmYWxzZSI+JiN4YTsJPC9zb2RpcG9kaTpuYW1lZHZpZXc+JiN4YTs8ZyBpZD0iZzkwMTg5IiB0cmFuc2Zvcm09InRyYW5zbGF0ZSgtMC43NSwtMC43NTI0KSI+JiN4YTsJPHRpdGxlIGlkPSJ0aXRsZTkwMTY5Ij5QYWdlLTE8L3RpdGxlPiYjeGE7CTxnIGlkPSJncm91cDQzNzUtMSIgdHJhbnNmb3JtPSJ0cmFuc2xhdGUoMC43NSwtMC43NSkiPiYjeGE7CQk8dGl0bGUgaWQ9InRpdGxlOTAxNzEiPlNlcnZpY2VzPC90aXRsZT4mI3hhOwkJPGcgaWQ9InNoYXBlNDM3Ni0yIj4mI3hhOwkJCTx0aXRsZSBpZD0idGl0bGU5MDE3MyI+U2hlZXQuNDM3NjwvdGl0bGU+JiN4YTsJCQk8cGF0aCBpZD0icGF0aDkwMTc1IiBpbmtzY2FwZTpjb25uZWN0b3ItY3VydmF0dXJlPSIwIiBzdHlsZT0iZmlsbDojM0Y1NzY1OyIgZD0iTTQxLjEyLDI1LjY2Yy0wLjctMy43OS0wLjctMy43OS0wLjctMy43OSAgICAgYy0wLjE0LTAuNDItMC40Mi0wLjctMC45OS0wLjg0Yy01Ljc3LTAuMjgtNS43Ny0wLjI4LTUuNzctMC4yOGMtMC4yOC0wLjQyLTAuNTYtMC45OS0wLjg1LTEuNGMyLjY4LTUuMiwyLjY4LTUuMiwyLjY4LTUuMiAgICAgYzAuMjktMC40MSwwLjE1LTAuOTgtMC4yOC0xLjI2Yy0yLjk1LTIuMzgtMi45NS0yLjM4LTIuOTUtMi4zOGMtMC4yOS0wLjQyLTAuODUtMC40Mi0xLjI4LTAuMTRjLTQuNjQsMy42NC00LjY0LDMuNjQtNC42NCwzLjY0ICAgICBjLTAuNDMtMC4yNy0wLjg0LTAuNDEtMS40MS0wLjU2Yy0xLjQxLTYuNTktMS40MS02LjU5LTEuNDEtNi41OWMtMC4xNC0wLjQyLTAuNTYtMC44NS0wLjk5LTAuODVjLTMuOTMsMC0zLjkzLDAtMy45MywwICAgICBjLTAuNDMsMC0wLjg1LDAuNDMtMC45OSwwLjg1Yy0xLjQxLDYuNTktMS40MSw2LjU5LTEuNDEsNi41OWMtMC41NywwLjE1LTAuOTgsMC4yOS0xLjQxLDAuNTZjLTQuNjQtMy42NC00LjY0LTMuNjQtNC42NC0zLjY0ICAgICBjLTAuNDMtMC4yOC0wLjk5LTAuMjgtMS4yOCwwYy0yLjk1LDIuNTItMi45NSwyLjUyLTIuOTUsMi41MmMtMC40MywwLjI4LTAuNDMsMC44NS0wLjI4LDEuMjZjMi42Nyw1LjIsMi42Nyw1LjIsMi42Nyw1LjIgICAgIGMtMC4yOCwwLjQxLTAuNTYsMC45OC0wLjg0LDEuNGMtNS43OCwwLjI4LTUuNzgsMC4yOC01Ljc4LDAuMjhjLTAuNTYsMC0wLjg0LDAuNDItMC45OCwwLjg0QzAsMjUuNjYsMCwyNS42NiwwLDI1LjY2ICAgICBjMCwwLjQyLDAuMTQsMC45OCwwLjU3LDEuMTJjNS40OSwyLjI1LDUuNDksMi4yNSw1LjQ5LDIuMjVjMC4xNCwwLjU2LDAuMTQsMS4xMiwwLjI4LDEuNjhjLTQuMzcsMy45My00LjM3LDMuOTMtNC4zNywzLjkzICAgICBjLTAuMjgsMC4yOC0wLjQyLDAuODQtMC4xNCwxLjI2YzEuOTcsMy4zNywxLjk3LDMuMzcsMS45NywzLjM3YzAuMTUsMC4yOCwwLjcxLDAuNTYsMS4xMywwLjQyYzUuNjMtMS44Miw1LjYzLTEuODIsNS42My0xLjgyICAgICBjMC40MywwLjQyLDAuODUsMC44NCwxLjI4LDEuMTJjLTAuNzEsNS43NS0wLjcxLDUuNzUtMC43MSw1Ljc1Yy0wLjE0LDAuNTYsMC4xNCwwLjk5LDAuNTYsMS4xM2MzLjY3LDEuMjYsMy42NywxLjI2LDMuNjcsMS4yNiAgICAgYzAuNDEsMC4xMywwLjk4LDAsMS4yNi0wLjI4YzMuMS01LjA2LDMuMS01LjA2LDMuMS01LjA2YzAuMjgsMCwwLjU3LDAuMTUsMC44NCwwLjE1YzAuMjgsMCwwLjU3LTAuMTUsMC44NS0wLjE1ICAgICBjMy4xLDUuMDYsMy4xLDUuMDYsMy4xLDUuMDZjMC4yOCwwLjI4LDAuODQsMC40MSwxLjI2LDAuMjhjMy42Ni0xLjI2LDMuNjYtMS4yNiwzLjY2LTEuMjZjMC40My0wLjE0LDAuNzEtMC41NywwLjU3LTEuMTMgICAgIGMtMC43MS01Ljc1LTAuNzEtNS43NS0wLjcxLTUuNzVjMC40My0wLjQyLDAuODUtMC43LDEuMjgtMS4xMmM1LjYyLDEuODIsNS42MiwxLjgyLDUuNjIsMS44MmMwLjQzLDAuMTQsMC45OS0wLjE0LDEuMTQtMC40MiAgICAgYzEuOTctMy4zNywxLjk3LTMuMzcsMS45Ny0zLjM3YzAuMjctMC40MiwwLjEzLTAuOTgtMC4xNC0xLjI2Yy00LjM3LTMuOTMtNC4zNy0zLjkzLTQuMzctMy45M2MwLjE0LTAuNTYsMC4xNC0xLjEyLDAuMjgtMS42OCAgICAgYzUuNDktMi4yNSw1LjQ5LTIuMjUsNS40OS0yLjI1QzQwLjk5LDI2LjY0LDQxLjEyLDI2LjIyLDQxLjEyLDI1LjY2eiBNMjguNzMsMjcuMzVjMCwyLjI0LTAuOTksNC4yLTIuMzksNS43NSAgICAgYy0xLjU1LDEuNC0zLjUyLDIuMzgtNS43OCwyLjM4Yy0yLjI1LDAtNC4yMi0wLjk4LTUuNzctMi4zOGMtMS40MS0xLjU1LTIuNC0zLjUxLTIuNC01Ljc1YzAtMi4yNSwwLjk5LTQuMzUsMi40LTUuNzYgICAgIGMxLjU1LTEuNTQsMy41Mi0yLjM4LDUuNzctMi4zOGMyLjI2LDAsNC4yMywwLjg0LDUuNzgsMi4zOEMyNy43NCwyMywyOC43MywyNS4xLDI4LjczLDI3LjM1eiIvPiYjeGE7CQk8L2c+JiN4YTsJCTxnIGlkPSJzaGFwZTQzNzctNCIgdHJhbnNmb3JtPSJ0cmFuc2xhdGUoMTYuNzU3NSwtMTYuMDI0OCkiPiYjeGE7CQkJPHRpdGxlIGlkPSJ0aXRsZTkwMTc4Ij5TaGVldC40Mzc3PC90aXRsZT4mI3hhOwkJCTxwYXRoIGlkPSJwYXRoOTAxODAiIGlua3NjYXBlOmNvbm5lY3Rvci1jdXJ2YXR1cmU9IjAiIHN0eWxlPSJmaWxsOiMzRjU3NjU7IiBkPSJNMCw0My4zOGMwLTIuMDksMS43MS0zLjc5LDMuOC0zLjc5ICAgICBjMi4xLDAsMy44MSwxLjcsMy44MSwzLjc5YzAsMi4xLTEuNzEsMy44LTMuODEsMy44QzEuNzEsNDcuMTgsMCw0NS40OCwwLDQzLjM4eiIvPiYjeGE7CQk8L2c+JiN4YTsJCTxnIGlkPSJzaGFwZTQzNzgtNiIgdHJhbnNmb3JtPSJ0cmFuc2xhdGUoMzUuNDY4MiwtMjMuMjA3NikiPiYjeGE7CQkJPHRpdGxlIGlkPSJ0aXRsZTkwMTgzIj5TaGVldC40Mzc4PC90aXRsZT4mI3hhOwkJCTxwYXRoIGlkPSJwYXRoOTAxODUiIGlua3NjYXBlOmNvbm5lY3Rvci1jdXJ2YXR1cmU9IjAiIHN0eWxlPSJmaWxsOiMzRjU3NjU7IiBkPSJNMTguMTksMzcuNDljMC4xNC0wLjQyLDAuMjgtMC45OCwwLjI4LTEuNTUgICAgIGMwLTAuNDEtMC4xNC0wLjk4LTAuMjgtMS40YzIuMjYtMi4xLDIuMjYtMi4xLDIuMjYtMi4xYzAuMjgtMC4xNSwwLjI4LTAuNDMsMC4yOC0wLjcxYzAtMC4xMywwLTAuNDIsMC0wLjU2ICAgICBjLTAuOTgtMS42OC0wLjk4LTEuNjgtMC45OC0xLjY4Yy0wLjI5LTAuMjktMC41Ny0wLjQzLTAuOTktMC40M2MwLDAtMC4xNSwwLTAuMjksMGMtMi44MiwwLjg1LTIuODIsMC44NS0yLjgyLDAuODUgICAgIGMtMC44NC0wLjU3LTEuNjktMS4xMi0yLjY4LTEuNDFjLTAuNTYtMi45NS0wLjU2LTIuOTUtMC41Ni0yLjk1Yy0wLjE0LTAuNDItMC41Ni0wLjg0LTAuOTktMC44NGMtMS45NywwLTEuOTcsMC0xLjk3LDAgICAgIGMtMC41NiwwLTAuODUsMC40Mi0wLjk5LDAuODRjLTAuNywyLjk1LTAuNywyLjk1LTAuNywyLjk1Yy0wLjk5LDAuMjktMS44NCwwLjg0LTIuNTQsMS41NWMtMi45Ni0wLjk5LTIuOTYtMC45OS0yLjk2LTAuOTkgICAgIGMtMC4xNCwwLTAuMTQsMC0wLjI4LDBjLTAuMjgsMC0wLjcxLDAuMTQtMC44NSwwLjQzYy0wLjk5LDEuNjgtMC45OSwxLjY4LTAuOTksMS42OEMwLDMxLjMxLDAsMzEuNiwwLDMxLjczICAgICBjMCwwLjI4LDAuMTQsMC41NiwwLjI4LDAuNzFjMi40LDIuMSwyLjQsMi4xLDIuNCwyLjFjLTAuMTQsMC40Mi0wLjI4LDAuOTktMC4yOCwxLjRjMCwwLjU3LDAuMTQsMC45OSwwLjI4LDEuNTUgICAgIGMtMi40LDIuMTEtMi40LDIuMTEtMi40LDIuMTFDMC4xNCwzOS43NCwwLDQwLjAyLDAsNDAuM2MwLDAuMTQsMCwwLjI4LDAuMTQsMC40MmMwLjk5LDEuNjksMC45OSwxLjY5LDAuOTksMS42OSAgICAgYzAuMTQsMC40MiwwLjU3LDAuNTYsMC44NSwwLjU2YzAuMTQsMCwwLjE0LDAsMC4yOCwwYzIuOTYtMC45OSwyLjk2LTAuOTksMi45Ni0wLjk5YzAuNywwLjU3LDEuNTUsMS4xMywyLjU0LDEuNDEgICAgIGMwLjcsMy4wOSwwLjcsMy4wOSwwLjcsMy4wOWMwLjE0LDAuNDIsMC40MywwLjcsMC45OSwwLjdjMS45NywwLDEuOTcsMCwxLjk3LDBjMC40MywwLDAuODUtMC4yOCwwLjk5LTAuNyAgICAgYzAuNTYtMi45NSwwLjU2LTIuOTUsMC41Ni0yLjk1YzAuOTktMC40MiwxLjg0LTAuODQsMi42OC0xLjU1YzIuODIsMC45OSwyLjgyLDAuOTksMi44MiwwLjk5YzAuMTQsMCwwLjI5LDAsMC4yOSwwICAgICBjMC40MiwwLDAuNy0wLjE0LDAuOTktMC41NmMwLjk4LTEuNjksMC45OC0xLjY5LDAuOTgtMS42OWMwLTAuMTQsMC4xNC0wLjI4LDAtMC40MmMwLjE0LTAuMjgsMC0wLjU2LTAuMjgtMC43TDE4LjE5LDM3LjQ5eiAgICAgIE0xMy41NCwzNS45NGMwLDEuNjktMS40MSwzLjA5LTMuMTEsMy4wOWMtMS42OSwwLTMuMDktMS40LTMuMDktMy4wOWMwLTEuNjgsMS40LTMuMDgsMy4wOS0zLjA4ICAgICBDMTIuMTMsMzIuODYsMTMuNTQsMzQuMjYsMTMuNTQsMzUuOTR6Ii8+JiN4YTsJCTwvZz4mI3hhOwk8L2c+JiN4YTs8L2c+JiN4YTs8L3N2Zz4=;" vertex="1" parent="9ZSXqyVSEwkqPgxAhCas-42">
          <mxGeometry x="122.18999999999994" y="55.129999999999995" width="43.5" height="35.73" as="geometry" />
        </mxCell>
        <mxCell id="9ZSXqyVSEwkqPgxAhCas-18" value="Device token" style="text;html=1;strokeColor=none;fillColor=none;align=center;verticalAlign=middle;whiteSpace=wrap;rounded=0;" vertex="1" parent="9ZSXqyVSEwkqPgxAhCas-42">
          <mxGeometry width="103.75" height="20" as="geometry" />
        </mxCell>
        <mxCell id="9ZSXqyVSEwkqPgxAhCas-35" style="edgeStyle=orthogonalEdgeStyle;curved=1;orthogonalLoop=1;jettySize=auto;html=1;exitX=0.5;exitY=0;exitDx=0;exitDy=0;entryX=1;entryY=0.5;entryDx=0;entryDy=0;" edge="1" parent="9ZSXqyVSEwkqPgxAhCas-42" source="9ZSXqyVSEwkqPgxAhCas-6" target="9ZSXqyVSEwkqPgxAhCas-18">
          <mxGeometry relative="1" as="geometry" />
        </mxCell>
        <mxCell id="9ZSXqyVSEwkqPgxAhCas-21" value="" style="shape=image;verticalLabelPosition=bottom;labelBackgroundColor=#ffffff;verticalAlign=top;aspect=fixed;imageAspect=0;image=data:image/svg+xml,PHN2ZyB4bWxuczpjYz0iaHR0cDovL2NyZWF0aXZlY29tbW9ucy5vcmcvbnMjIiB4bWxuczpkYz0iaHR0cDovL3B1cmwub3JnL2RjL2VsZW1lbnRzLzEuMS8iIHhtbG5zOmlua3NjYXBlPSJodHRwOi8vd3d3Lmlua3NjYXBlLm9yZy9uYW1lc3BhY2VzL2lua3NjYXBlIiB4bWxuczpyZGY9Imh0dHA6Ly93d3cudzMub3JnLzE5OTkvMDIvMjItcmRmLXN5bnRheC1ucyMiIHhtbG5zOnNvZGlwb2RpPSJodHRwOi8vc29kaXBvZGkuc291cmNlZm9yZ2UubmV0L0RURC9zb2RpcG9kaS0wLmR0ZCIgeG1sbnM6c3ZnPSJodHRwOi8vd3d3LnczLm9yZy8yMDAwL3N2ZyIgeG1sbnM9Imh0dHA6Ly93d3cudzMub3JnLzIwMDAvc3ZnIiB4bWxuczp4bGluaz0iaHR0cDovL3d3dy53My5vcmcvMTk5OS94bGluayIgdmVyc2lvbj0iMS4xIiBpZD0ic3ZnMjQxMzMiIGlua3NjYXBlOnZlcnNpb249IjAuOTIuMyAoMjQwNTU0NiwgMjAxOC0wMy0xMSkiIHNvZGlwb2RpOmRvY25hbWU9Im1vYmlsZV8yLnN2ZyIgeD0iMHB4IiB5PSIwcHgiIHZpZXdCb3g9IjAgMCAyNi4yNSA0Ny4yNSIgc3R5bGU9ImVuYWJsZS1iYWNrZ3JvdW5kOm5ldyAwIDAgMjYuMjUgNDcuMjU7IiB4bWw6c3BhY2U9InByZXNlcnZlIj4mI3hhOzxzb2RpcG9kaTpuYW1lZHZpZXcgYm9yZGVyY29sb3I9IiM2NjY2NjYiIGJvcmRlcm9wYWNpdHk9IjEiIGZpdC1tYXJnaW4tYm90dG9tPSIwIiBmaXQtbWFyZ2luLWxlZnQ9IjAiIGZpdC1tYXJnaW4tcmlnaHQ9IjAiIGZpdC1tYXJnaW4tdG9wPSIwIiBncmlkdG9sZXJhbmNlPSIxMCIgZ3VpZGV0b2xlcmFuY2U9IjEwIiBpZD0ibmFtZWR2aWV3MjQxMzUiIGlua3NjYXBlOmN1cnJlbnQtbGF5ZXI9InN2ZzI0MTMzIiBpbmtzY2FwZTpjeD0iMTcuNDk5OTkxIiBpbmtzY2FwZTpjeT0iMzEuNDk5OTg1IiBpbmtzY2FwZTpwYWdlb3BhY2l0eT0iMCIgaW5rc2NhcGU6cGFnZXNoYWRvdz0iMiIgaW5rc2NhcGU6d2luZG93LWhlaWdodD0iMTAxNyIgaW5rc2NhcGU6d2luZG93LW1heGltaXplZD0iMSIgaW5rc2NhcGU6d2luZG93LXdpZHRoPSIxOTIwIiBpbmtzY2FwZTp3aW5kb3cteD0iLTgiIGlua3NjYXBlOndpbmRvdy15PSItOCIgaW5rc2NhcGU6em9vbT0iMTMuMzM4NDY4IiBvYmplY3R0b2xlcmFuY2U9IjEwIiBwYWdlY29sb3I9IiNmZmZmZmYiIHNob3dncmlkPSJmYWxzZSI+JiN4YTsJPC9zb2RpcG9kaTpuYW1lZHZpZXc+JiN4YTs8ZyBpZD0iZzI0MTMxIiB0cmFuc2Zvcm09InRyYW5zbGF0ZSgtMC43NTAwMTkzOSwtMC43NSkiPiYjeGE7CTx0aXRsZSBpZD0idGl0bGUyNDEwNiI+UGFnZS0xPC90aXRsZT4mI3hhOwk8ZyBpZD0iZ3JvdXAzMzM4LTEiIHRyYW5zZm9ybT0idHJhbnNsYXRlKDEuNSwtMS41KSI+JiN4YTsJCTx0aXRsZSBpZD0idGl0bGUyNDEwOCI+TW9iaWxlICMyPC90aXRsZT4mI3hhOwkJPGcgaWQ9InNoYXBlMzMzOS0yIj4mI3hhOwkJCTx0aXRsZSBpZD0idGl0bGUyNDExMCI+cmVjdDE2MzQ8L3RpdGxlPiYjeGE7CQkJJiN4YTsJCQkJPHBhdGggaWQ9InBhdGgyNDExMiIgaW5rc2NhcGU6Y29ubmVjdG9yLWN1cnZhdHVyZT0iMCIgc3R5bGU9ImZpbGw6I0ZDRkNGQztzdHJva2U6IzU1NkE4QTtzdHJva2Utd2lkdGg6MS41O3N0cm9rZS1taXRlcmxpbWl0OjM7IiBkPSIgICAgIE0wLDQ1Ljc1YzAsMS42NiwxLjM0LDMsMywzaDE4Ljc1YzEuNjYsMCwzLTEuMzQsMy0zVjZjMC0xLjY2LTEuMzQtMy0zLTNIM0MxLjM0LDMsMCw0LjM0LDAsNlY0NS43NXoiLz4mI3hhOwkJPC9nPiYjeGE7CQk8ZyBpZD0ic2hhcGUzMzQwLTQiIHRyYW5zZm9ybT0idHJhbnNsYXRlKDMsLTYuNzUpIj4mI3hhOwkJCTx0aXRsZSBpZD0idGl0bGUyNDExNSI+cmVjdDE2MzY8L3RpdGxlPiYjeGE7CQkJPHJlY3QgaWQ9InJlY3QyNDExNyIgeD0iMCIgeT0iMTUuNzUiIHN0eWxlPSJmaWxsOiNBQUU5RkI7IiB3aWR0aD0iMTguNzUiIGhlaWdodD0iMzMiLz4mI3hhOwkJPC9nPiYjeGE7CQk8ZyBpZD0ic2hhcGUzMzQxLTYiIHRyYW5zZm9ybT0idHJhbnNsYXRlKDguODU3NSwtNDEuMjUpIj4mI3hhOwkJCTx0aXRsZSBpZD0idGl0bGUyNDEyMCI+cGF0aDE2Mzg8L3RpdGxlPiYjeGE7CQkJPHBhdGggaWQ9InBhdGgyNDEyMiIgaW5rc2NhcGU6Y29ubmVjdG9yLWN1cnZhdHVyZT0iMCIgc3R5bGU9ImZpbGw6Izk5OTk5OTsiIGQ9Ik03LjAzLDQ4Ljc1SDAuNzVDMC4zNCw0OC43NSwwLDQ4LjQxLDAsNDggICAgIHMwLjM0LTAuNzUsMC43NS0wLjc1aDYuMjhjMC40MSwwLDAuNzUsMC4zNCwwLjc1LDAuNzVTNy40NCw0OC43NSw3LjAzLDQ4Ljc1eiIvPiYjeGE7CQk8L2c+JiN4YTsJCTxnIGlkPSJzaGFwZTMzNDItOCIgdHJhbnNmb3JtPSJ0cmFuc2xhdGUoMTEuMjU3NSwtMykiPiYjeGE7CQkJPHRpdGxlIGlkPSJ0aXRsZTI0MTI1Ij5wYXRoMTY0MDwvdGl0bGU+JiN4YTsJCQk8cGF0aCBpZD0icGF0aDI0MTI3IiBpbmtzY2FwZTpjb25uZWN0b3ItY3VydmF0dXJlPSIwIiBzdHlsZT0iZmlsbDojOTk5OTk5OyIgZD0iTTIuNzUsNDguNzVIMC4yNEMwLjEsNDguNzUsMCw0OC40MSwwLDQ4ICAgICBzMC4xMS0wLjc1LDAuMjQtMC43NWgyLjUxYzAuMTQsMCwwLjI0LDAuMzQsMC4yNCwwLjc1UzIuODgsNDguNzUsMi43NSw0OC43NXoiLz4mI3hhOwkJPC9nPiYjeGE7CTwvZz4mI3hhOzwvZz4mI3hhOzwvc3ZnPg==;" vertex="1" parent="9ZSXqyVSEwkqPgxAhCas-42">
          <mxGeometry x="38.879999999999995" y="54" width="26" height="47" as="geometry" />
        </mxCell>
        <mxCell id="9ZSXqyVSEwkqPgxAhCas-32" value="" style="shape=image;verticalLabelPosition=bottom;labelBackgroundColor=#ffffff;verticalAlign=top;aspect=fixed;imageAspect=0;image=data:image/svg+xml,PHN2ZyB4bWxuczpkYz0iaHR0cDovL3B1cmwub3JnL2RjL2VsZW1lbnRzLzEuMS8iIHhtbG5zOmNjPSJodHRwOi8vY3JlYXRpdmVjb21tb25zLm9yZy9ucyMiIHhtbG5zOnJkZj0iaHR0cDovL3d3dy53My5vcmcvMTk5OS8wMi8yMi1yZGYtc3ludGF4LW5zIyIgeG1sbnM6c3ZnPSJodHRwOi8vd3d3LnczLm9yZy8yMDAwL3N2ZyIgeG1sbnM9Imh0dHA6Ly93d3cudzMub3JnLzIwMDAvc3ZnIiB4bWxuczp4bGluaz0iaHR0cDovL3d3dy53My5vcmcvMTk5OS94bGluayIgeG1sbnM6c29kaXBvZGk9Imh0dHA6Ly9zb2RpcG9kaS5zb3VyY2Vmb3JnZS5uZXQvRFREL3NvZGlwb2RpLTAuZHRkIiB4bWxuczppbmtzY2FwZT0iaHR0cDovL3d3dy5pbmtzY2FwZS5vcmcvbmFtZXNwYWNlcy9pbmtzY2FwZSIgdmVyc2lvbj0iMS4xIiBpZD0iTGF5ZXJfMSIgeD0iMHB4IiB5PSIwcHgiIHZpZXdCb3g9IjAgMCAzMS40Mzk5ODcgMzIuMzk5OTk4IiB4bWw6c3BhY2U9InByZXNlcnZlIiBzb2RpcG9kaTpkb2NuYW1lPSJhZGQuc3ZnIiB3aWR0aD0iMzEuNDM5OTg3IiBoZWlnaHQ9IjMyLjM5OTk5OCIgaW5rc2NhcGU6dmVyc2lvbj0iMC45Mi4zICgyNDA1NTQ2LCAyMDE4LTAzLTExKSI+PG1ldGFkYXRhIGlkPSJtZXRhZGF0YTQ0MzQ0Ij48cmRmOlJERj48Y2M6V29yayByZGY6YWJvdXQ9IiI+PGRjOmZvcm1hdD5pbWFnZS9zdmcreG1sPC9kYzpmb3JtYXQ+PGRjOnR5cGUgcmRmOnJlc291cmNlPSJodHRwOi8vcHVybC5vcmcvZGMvZGNtaXR5cGUvU3RpbGxJbWFnZSIvPjxkYzp0aXRsZS8+PC9jYzpXb3JrPjwvcmRmOlJERj48L21ldGFkYXRhPjxkZWZzIGlkPSJkZWZzNDQzNDIiLz48c29kaXBvZGk6bmFtZWR2aWV3IHBhZ2Vjb2xvcj0iI2ZmZmZmZiIgYm9yZGVyY29sb3I9IiM2NjY2NjYiIGJvcmRlcm9wYWNpdHk9IjEiIG9iamVjdHRvbGVyYW5jZT0iMTAiIGdyaWR0b2xlcmFuY2U9IjEwIiBndWlkZXRvbGVyYW5jZT0iMTAiIGlua3NjYXBlOnBhZ2VvcGFjaXR5PSIwIiBpbmtzY2FwZTpwYWdlc2hhZG93PSIyIiBpbmtzY2FwZTp3aW5kb3ctd2lkdGg9IjE5MjAiIGlua3NjYXBlOndpbmRvdy1oZWlnaHQ9IjEwMTciIGlkPSJuYW1lZHZpZXc0NDM0MCIgc2hvd2dyaWQ9ImZhbHNlIiBmaXQtbWFyZ2luLXRvcD0iMCIgZml0LW1hcmdpbi1sZWZ0PSIwIiBmaXQtbWFyZ2luLXJpZ2h0PSIwIiBmaXQtbWFyZ2luLWJvdHRvbT0iMCIgaW5rc2NhcGU6em9vbT0iMS4wMzAzMDMiIGlua3NjYXBlOmN4PSItMTEuMDQ1MDEzIiBpbmtzY2FwZTpjeT0iLTI4Mi4wMiIgaW5rc2NhcGU6d2luZG93LXg9Ii04IiBpbmtzY2FwZTp3aW5kb3cteT0iLTgiIGlua3NjYXBlOndpbmRvdy1tYXhpbWl6ZWQ9IjEiIGlua3NjYXBlOmN1cnJlbnQtbGF5ZXI9IkxheWVyXzEiLz4mI3hhOyYjeGE7PGcgaWQ9Imc0NDMzNyIgdHJhbnNmb3JtPSJ0cmFuc2xhdGUoLTMwOC40MjAwMSwtMTA2LjMzKSI+JiN4YTsJPGRlZnMgaWQ9ImRlZnM0NDMyMiI+JiN4YTsJCTxyZWN0IGlkPSJTVkdJRF8zXyIgeD0iMzA4LjQyMDAxIiB5PSIxMDYuMzMiIHdpZHRoPSIzMy45OTAwMDIiIGhlaWdodD0iMzMuOTgiLz4mI3hhOwk8L2RlZnM+JiN4YTsJPGNsaXBQYXRoIGlkPSJTVkdJRF80XyI+JiN4YTsJCTx1c2UgeGxpbms6aHJlZj0iI1NWR0lEXzNfIiBzdHlsZT0ib3ZlcmZsb3c6dmlzaWJsZSIgaWQ9InVzZTQ0MzI0IiB4PSIwIiB5PSIwIiB3aWR0aD0iMTAwJSIgaGVpZ2h0PSIxMDAlIi8+JiN4YTsJPC9jbGlwUGF0aD4mI3hhOwk8ZyBjbGlwLXBhdGg9InVybCgjU1ZHSURfNF8pIiBpZD0iZzQ0MzM1Ij4mI3hhOwkJPGRlZnMgaWQ9ImRlZnM0NDMyOCI+JiN4YTsJCQk8cmVjdCBpZD0iU1ZHSURfNV8iIHg9IjMwOC40MjAwMSIgeT0iMTA2LjMyIiB3aWR0aD0iMzMuOTkwMDAyIiBoZWlnaHQ9IjMzLjk5MDAwMiIvPiYjeGE7CQk8L2RlZnM+JiN4YTsJCTxjbGlwUGF0aCBpZD0iU1ZHSURfNl8iPiYjeGE7CQkJPHVzZSB4bGluazpocmVmPSIjU1ZHSURfNV8iIHN0eWxlPSJvdmVyZmxvdzp2aXNpYmxlIiBpZD0idXNlNDQzMzAiIHg9IjAiIHk9IjAiIHdpZHRoPSIxMDAlIiBoZWlnaHQ9IjEwMCUiLz4mI3hhOwkJPC9jbGlwUGF0aD4mI3hhOwkJPHBvbHlnb24gc3R5bGU9ImZpbGw6IzcxYmU3MiIgcG9pbnRzPSIzMzkuODYsMTIwLjY0IDMzOS44NiwxMjQuMjkgMzI2LjA5LDEyNC4yOSAzMjYuMDksMTM4LjczIDMyMi4yLDEzOC43MyAzMjIuMiwxMjQuMjkgMzA4LjQyLDEyNC4yOSAzMDguNDIsMTIwLjY0IDMyMi4yLDEyMC42NCAzMjIuMiwxMDYuMzIgMzI2LjA5LDEwNi4zMiAzMjYuMDksMTIwLjY0ICIgY2xpcC1wYXRoPSJ1cmwoI1NWR0lEXzZfKSIgaWQ9InBvbHlnb240NDMzMyIvPiYjeGE7CTwvZz4mI3hhOzwvZz4mI3hhOzwvc3ZnPg==;" vertex="1" parent="9ZSXqyVSEwkqPgxAhCas-42">
          <mxGeometry x="84.38" y="63.16999999999996" width="20" height="20.65" as="geometry" />
        </mxCell>
        <mxCell id="9ZSXqyVSEwkqPgxAhCas-34" value="Firebase messaging services" style="text;html=1;strokeColor=none;fillColor=none;align=center;verticalAlign=middle;whiteSpace=wrap;rounded=0;" vertex="1" parent="9ZSXqyVSEwkqPgxAhCas-42">
          <mxGeometry x="80.38" y="101" width="127.12" height="20" as="geometry" />
        </mxCell>
        <mxCell id="9ZSXqyVSEwkqPgxAhCas-28" style="edgeStyle=orthogonalEdgeStyle;curved=1;orthogonalLoop=1;jettySize=auto;html=1;exitX=0.5;exitY=1;exitDx=0;exitDy=0;entryX=0.5;entryY=0;entryDx=0;entryDy=0;" edge="1" parent="9ZSXqyVSEwkqPgxAhCas-42" source="9ZSXqyVSEwkqPgxAhCas-18" target="9ZSXqyVSEwkqPgxAhCas-21">
          <mxGeometry relative="1" as="geometry" />
        </mxCell>
        <mxCell id="9ZSXqyVSEwkqPgxAhCas-45" value="" style="group" vertex="1" connectable="0" parent="1">
          <mxGeometry x="80" y="690" width="236" height="150" as="geometry" />
        </mxCell>
        <mxCell id="9ZSXqyVSEwkqPgxAhCas-40" value="" style="rounded=1;whiteSpace=wrap;html=1;" vertex="1" parent="9ZSXqyVSEwkqPgxAhCas-45">
          <mxGeometry width="236" height="150" as="geometry" />
        </mxCell>
        <mxCell id="9ZSXqyVSEwkqPgxAhCas-41" value="" style="group" vertex="1" connectable="0" parent="9ZSXqyVSEwkqPgxAhCas-45">
          <mxGeometry x="6.000000000000014" y="18" width="219.99" height="121" as="geometry" />
        </mxCell>
        <mxCell id="9ZSXqyVSEwkqPgxAhCas-9" value="Device token" style="text;html=1;strokeColor=none;fillColor=none;align=center;verticalAlign=middle;whiteSpace=wrap;rounded=0;" vertex="1" parent="9ZSXqyVSEwkqPgxAhCas-41">
          <mxGeometry width="103.75" height="20" as="geometry" />
        </mxCell>
        <mxCell id="9ZSXqyVSEwkqPgxAhCas-25" style="edgeStyle=orthogonalEdgeStyle;curved=1;orthogonalLoop=1;jettySize=auto;html=1;exitX=0.5;exitY=0;exitDx=0;exitDy=0;entryX=1;entryY=0.5;entryDx=0;entryDy=0;" edge="1" parent="9ZSXqyVSEwkqPgxAhCas-41" source="9ZSXqyVSEwkqPgxAhCas-16" target="9ZSXqyVSEwkqPgxAhCas-9">
          <mxGeometry relative="1" as="geometry" />
        </mxCell>
        <mxCell id="9ZSXqyVSEwkqPgxAhCas-16" value="" style="shape=image;verticalLabelPosition=bottom;labelBackgroundColor=#ffffff;verticalAlign=top;aspect=fixed;imageAspect=0;image=data:image/svg+xml,PHN2ZyB4bWxuczpjYz0iaHR0cDovL2NyZWF0aXZlY29tbW9ucy5vcmcvbnMjIiB4bWxuczpkYz0iaHR0cDovL3B1cmwub3JnL2RjL2VsZW1lbnRzLzEuMS8iIHhtbG5zOmlua3NjYXBlPSJodHRwOi8vd3d3Lmlua3NjYXBlLm9yZy9uYW1lc3BhY2VzL2lua3NjYXBlIiB4bWxuczpyZGY9Imh0dHA6Ly93d3cudzMub3JnLzE5OTkvMDIvMjItcmRmLXN5bnRheC1ucyMiIHhtbG5zOnNvZGlwb2RpPSJodHRwOi8vc29kaXBvZGkuc291cmNlZm9yZ2UubmV0L0RURC9zb2RpcG9kaS0wLmR0ZCIgeG1sbnM6c3ZnPSJodHRwOi8vd3d3LnczLm9yZy8yMDAwL3N2ZyIgeG1sbnM9Imh0dHA6Ly93d3cudzMub3JnLzIwMDAvc3ZnIiB4bWxuczp4bGluaz0iaHR0cDovL3d3dy53My5vcmcvMTk5OS94bGluayIgdmVyc2lvbj0iMS4xIiBpZD0ic3ZnOTAxOTEiIGlua3NjYXBlOnZlcnNpb249IjAuOTIuMyAoMjQwNTU0NiwgMjAxOC0wMy0xMSkiIHNvZGlwb2RpOmRvY25hbWU9InNlcnZpY2VzLnN2ZyIgeD0iMHB4IiB5PSIwcHgiIHZpZXdCb3g9IjAgMCA1Ni4yNiA0NS42OCIgc3R5bGU9ImVuYWJsZS1iYWNrZ3JvdW5kOm5ldyAwIDAgNTYuMjYgNDUuNjg7IiB4bWw6c3BhY2U9InByZXNlcnZlIj4mI3hhOzxzb2RpcG9kaTpuYW1lZHZpZXcgYm9yZGVyY29sb3I9IiM2NjY2NjYiIGJvcmRlcm9wYWNpdHk9IjEiIGZpdC1tYXJnaW4tYm90dG9tPSIwIiBmaXQtbWFyZ2luLWxlZnQ9IjAiIGZpdC1tYXJnaW4tcmlnaHQ9IjAiIGZpdC1tYXJnaW4tdG9wPSIwIiBncmlkdG9sZXJhbmNlPSIxMCIgZ3VpZGV0b2xlcmFuY2U9IjEwIiBpZD0ibmFtZWR2aWV3OTAxOTMiIGlua3NjYXBlOmN1cnJlbnQtbGF5ZXI9InN2ZzkwMTkxIiBpbmtzY2FwZTpjeD0iMzIuNzA3NDM1IiBpbmtzY2FwZTpjeT0iMTIuNzc0NzU4IiBpbmtzY2FwZTpwYWdlb3BhY2l0eT0iMCIgaW5rc2NhcGU6cGFnZXNoYWRvdz0iMiIgaW5rc2NhcGU6d2luZG93LWhlaWdodD0iMTAxNyIgaW5rc2NhcGU6d2luZG93LW1heGltaXplZD0iMSIgaW5rc2NhcGU6d2luZG93LXdpZHRoPSIxOTIwIiBpbmtzY2FwZTp3aW5kb3cteD0iLTgiIGlua3NjYXBlOndpbmRvdy15PSItOCIgaW5rc2NhcGU6em9vbT0iNi44OTEyMjIyIiBvYmplY3R0b2xlcmFuY2U9IjEwIiBwYWdlY29sb3I9IiNmZmZmZmYiIHNob3dncmlkPSJmYWxzZSI+JiN4YTsJPC9zb2RpcG9kaTpuYW1lZHZpZXc+JiN4YTs8ZyBpZD0iZzkwMTg5IiB0cmFuc2Zvcm09InRyYW5zbGF0ZSgtMC43NSwtMC43NTI0KSI+JiN4YTsJPHRpdGxlIGlkPSJ0aXRsZTkwMTY5Ij5QYWdlLTE8L3RpdGxlPiYjeGE7CTxnIGlkPSJncm91cDQzNzUtMSIgdHJhbnNmb3JtPSJ0cmFuc2xhdGUoMC43NSwtMC43NSkiPiYjeGE7CQk8dGl0bGUgaWQ9InRpdGxlOTAxNzEiPlNlcnZpY2VzPC90aXRsZT4mI3hhOwkJPGcgaWQ9InNoYXBlNDM3Ni0yIj4mI3hhOwkJCTx0aXRsZSBpZD0idGl0bGU5MDE3MyI+U2hlZXQuNDM3NjwvdGl0bGU+JiN4YTsJCQk8cGF0aCBpZD0icGF0aDkwMTc1IiBpbmtzY2FwZTpjb25uZWN0b3ItY3VydmF0dXJlPSIwIiBzdHlsZT0iZmlsbDojM0Y1NzY1OyIgZD0iTTQxLjEyLDI1LjY2Yy0wLjctMy43OS0wLjctMy43OS0wLjctMy43OSAgICAgYy0wLjE0LTAuNDItMC40Mi0wLjctMC45OS0wLjg0Yy01Ljc3LTAuMjgtNS43Ny0wLjI4LTUuNzctMC4yOGMtMC4yOC0wLjQyLTAuNTYtMC45OS0wLjg1LTEuNGMyLjY4LTUuMiwyLjY4LTUuMiwyLjY4LTUuMiAgICAgYzAuMjktMC40MSwwLjE1LTAuOTgtMC4yOC0xLjI2Yy0yLjk1LTIuMzgtMi45NS0yLjM4LTIuOTUtMi4zOGMtMC4yOS0wLjQyLTAuODUtMC40Mi0xLjI4LTAuMTRjLTQuNjQsMy42NC00LjY0LDMuNjQtNC42NCwzLjY0ICAgICBjLTAuNDMtMC4yNy0wLjg0LTAuNDEtMS40MS0wLjU2Yy0xLjQxLTYuNTktMS40MS02LjU5LTEuNDEtNi41OWMtMC4xNC0wLjQyLTAuNTYtMC44NS0wLjk5LTAuODVjLTMuOTMsMC0zLjkzLDAtMy45MywwICAgICBjLTAuNDMsMC0wLjg1LDAuNDMtMC45OSwwLjg1Yy0xLjQxLDYuNTktMS40MSw2LjU5LTEuNDEsNi41OWMtMC41NywwLjE1LTAuOTgsMC4yOS0xLjQxLDAuNTZjLTQuNjQtMy42NC00LjY0LTMuNjQtNC42NC0zLjY0ICAgICBjLTAuNDMtMC4yOC0wLjk5LTAuMjgtMS4yOCwwYy0yLjk1LDIuNTItMi45NSwyLjUyLTIuOTUsMi41MmMtMC40MywwLjI4LTAuNDMsMC44NS0wLjI4LDEuMjZjMi42Nyw1LjIsMi42Nyw1LjIsMi42Nyw1LjIgICAgIGMtMC4yOCwwLjQxLTAuNTYsMC45OC0wLjg0LDEuNGMtNS43OCwwLjI4LTUuNzgsMC4yOC01Ljc4LDAuMjhjLTAuNTYsMC0wLjg0LDAuNDItMC45OCwwLjg0QzAsMjUuNjYsMCwyNS42NiwwLDI1LjY2ICAgICBjMCwwLjQyLDAuMTQsMC45OCwwLjU3LDEuMTJjNS40OSwyLjI1LDUuNDksMi4yNSw1LjQ5LDIuMjVjMC4xNCwwLjU2LDAuMTQsMS4xMiwwLjI4LDEuNjhjLTQuMzcsMy45My00LjM3LDMuOTMtNC4zNywzLjkzICAgICBjLTAuMjgsMC4yOC0wLjQyLDAuODQtMC4xNCwxLjI2YzEuOTcsMy4zNywxLjk3LDMuMzcsMS45NywzLjM3YzAuMTUsMC4yOCwwLjcxLDAuNTYsMS4xMywwLjQyYzUuNjMtMS44Miw1LjYzLTEuODIsNS42My0xLjgyICAgICBjMC40MywwLjQyLDAuODUsMC44NCwxLjI4LDEuMTJjLTAuNzEsNS43NS0wLjcxLDUuNzUtMC43MSw1Ljc1Yy0wLjE0LDAuNTYsMC4xNCwwLjk5LDAuNTYsMS4xM2MzLjY3LDEuMjYsMy42NywxLjI2LDMuNjcsMS4yNiAgICAgYzAuNDEsMC4xMywwLjk4LDAsMS4yNi0wLjI4YzMuMS01LjA2LDMuMS01LjA2LDMuMS01LjA2YzAuMjgsMCwwLjU3LDAuMTUsMC44NCwwLjE1YzAuMjgsMCwwLjU3LTAuMTUsMC44NS0wLjE1ICAgICBjMy4xLDUuMDYsMy4xLDUuMDYsMy4xLDUuMDZjMC4yOCwwLjI4LDAuODQsMC40MSwxLjI2LDAuMjhjMy42Ni0xLjI2LDMuNjYtMS4yNiwzLjY2LTEuMjZjMC40My0wLjE0LDAuNzEtMC41NywwLjU3LTEuMTMgICAgIGMtMC43MS01Ljc1LTAuNzEtNS43NS0wLjcxLTUuNzVjMC40My0wLjQyLDAuODUtMC43LDEuMjgtMS4xMmM1LjYyLDEuODIsNS42MiwxLjgyLDUuNjIsMS44MmMwLjQzLDAuMTQsMC45OS0wLjE0LDEuMTQtMC40MiAgICAgYzEuOTctMy4zNywxLjk3LTMuMzcsMS45Ny0zLjM3YzAuMjctMC40MiwwLjEzLTAuOTgtMC4xNC0xLjI2Yy00LjM3LTMuOTMtNC4zNy0zLjkzLTQuMzctMy45M2MwLjE0LTAuNTYsMC4xNC0xLjEyLDAuMjgtMS42OCAgICAgYzUuNDktMi4yNSw1LjQ5LTIuMjUsNS40OS0yLjI1QzQwLjk5LDI2LjY0LDQxLjEyLDI2LjIyLDQxLjEyLDI1LjY2eiBNMjguNzMsMjcuMzVjMCwyLjI0LTAuOTksNC4yLTIuMzksNS43NSAgICAgYy0xLjU1LDEuNC0zLjUyLDIuMzgtNS43OCwyLjM4Yy0yLjI1LDAtNC4yMi0wLjk4LTUuNzctMi4zOGMtMS40MS0xLjU1LTIuNC0zLjUxLTIuNC01Ljc1YzAtMi4yNSwwLjk5LTQuMzUsMi40LTUuNzYgICAgIGMxLjU1LTEuNTQsMy41Mi0yLjM4LDUuNzctMi4zOGMyLjI2LDAsNC4yMywwLjg0LDUuNzgsMi4zOEMyNy43NCwyMywyOC43MywyNS4xLDI4LjczLDI3LjM1eiIvPiYjeGE7CQk8L2c+JiN4YTsJCTxnIGlkPSJzaGFwZTQzNzctNCIgdHJhbnNmb3JtPSJ0cmFuc2xhdGUoMTYuNzU3NSwtMTYuMDI0OCkiPiYjeGE7CQkJPHRpdGxlIGlkPSJ0aXRsZTkwMTc4Ij5TaGVldC40Mzc3PC90aXRsZT4mI3hhOwkJCTxwYXRoIGlkPSJwYXRoOTAxODAiIGlua3NjYXBlOmNvbm5lY3Rvci1jdXJ2YXR1cmU9IjAiIHN0eWxlPSJmaWxsOiMzRjU3NjU7IiBkPSJNMCw0My4zOGMwLTIuMDksMS43MS0zLjc5LDMuOC0zLjc5ICAgICBjMi4xLDAsMy44MSwxLjcsMy44MSwzLjc5YzAsMi4xLTEuNzEsMy44LTMuODEsMy44QzEuNzEsNDcuMTgsMCw0NS40OCwwLDQzLjM4eiIvPiYjeGE7CQk8L2c+JiN4YTsJCTxnIGlkPSJzaGFwZTQzNzgtNiIgdHJhbnNmb3JtPSJ0cmFuc2xhdGUoMzUuNDY4MiwtMjMuMjA3NikiPiYjeGE7CQkJPHRpdGxlIGlkPSJ0aXRsZTkwMTgzIj5TaGVldC40Mzc4PC90aXRsZT4mI3hhOwkJCTxwYXRoIGlkPSJwYXRoOTAxODUiIGlua3NjYXBlOmNvbm5lY3Rvci1jdXJ2YXR1cmU9IjAiIHN0eWxlPSJmaWxsOiMzRjU3NjU7IiBkPSJNMTguMTksMzcuNDljMC4xNC0wLjQyLDAuMjgtMC45OCwwLjI4LTEuNTUgICAgIGMwLTAuNDEtMC4xNC0wLjk4LTAuMjgtMS40YzIuMjYtMi4xLDIuMjYtMi4xLDIuMjYtMi4xYzAuMjgtMC4xNSwwLjI4LTAuNDMsMC4yOC0wLjcxYzAtMC4xMywwLTAuNDIsMC0wLjU2ICAgICBjLTAuOTgtMS42OC0wLjk4LTEuNjgtMC45OC0xLjY4Yy0wLjI5LTAuMjktMC41Ny0wLjQzLTAuOTktMC40M2MwLDAtMC4xNSwwLTAuMjksMGMtMi44MiwwLjg1LTIuODIsMC44NS0yLjgyLDAuODUgICAgIGMtMC44NC0wLjU3LTEuNjktMS4xMi0yLjY4LTEuNDFjLTAuNTYtMi45NS0wLjU2LTIuOTUtMC41Ni0yLjk1Yy0wLjE0LTAuNDItMC41Ni0wLjg0LTAuOTktMC44NGMtMS45NywwLTEuOTcsMC0xLjk3LDAgICAgIGMtMC41NiwwLTAuODUsMC40Mi0wLjk5LDAuODRjLTAuNywyLjk1LTAuNywyLjk1LTAuNywyLjk1Yy0wLjk5LDAuMjktMS44NCwwLjg0LTIuNTQsMS41NWMtMi45Ni0wLjk5LTIuOTYtMC45OS0yLjk2LTAuOTkgICAgIGMtMC4xNCwwLTAuMTQsMC0wLjI4LDBjLTAuMjgsMC0wLjcxLDAuMTQtMC44NSwwLjQzYy0wLjk5LDEuNjgtMC45OSwxLjY4LTAuOTksMS42OEMwLDMxLjMxLDAsMzEuNiwwLDMxLjczICAgICBjMCwwLjI4LDAuMTQsMC41NiwwLjI4LDAuNzFjMi40LDIuMSwyLjQsMi4xLDIuNCwyLjFjLTAuMTQsMC40Mi0wLjI4LDAuOTktMC4yOCwxLjRjMCwwLjU3LDAuMTQsMC45OSwwLjI4LDEuNTUgICAgIGMtMi40LDIuMTEtMi40LDIuMTEtMi40LDIuMTFDMC4xNCwzOS43NCwwLDQwLjAyLDAsNDAuM2MwLDAuMTQsMCwwLjI4LDAuMTQsMC40MmMwLjk5LDEuNjksMC45OSwxLjY5LDAuOTksMS42OSAgICAgYzAuMTQsMC40MiwwLjU3LDAuNTYsMC44NSwwLjU2YzAuMTQsMCwwLjE0LDAsMC4yOCwwYzIuOTYtMC45OSwyLjk2LTAuOTksMi45Ni0wLjk5YzAuNywwLjU3LDEuNTUsMS4xMywyLjU0LDEuNDEgICAgIGMwLjcsMy4wOSwwLjcsMy4wOSwwLjcsMy4wOWMwLjE0LDAuNDIsMC40MywwLjcsMC45OSwwLjdjMS45NywwLDEuOTcsMCwxLjk3LDBjMC40MywwLDAuODUtMC4yOCwwLjk5LTAuNyAgICAgYzAuNTYtMi45NSwwLjU2LTIuOTUsMC41Ni0yLjk1YzAuOTktMC40MiwxLjg0LTAuODQsMi42OC0xLjU1YzIuODIsMC45OSwyLjgyLDAuOTksMi44MiwwLjk5YzAuMTQsMCwwLjI5LDAsMC4yOSwwICAgICBjMC40MiwwLDAuNy0wLjE0LDAuOTktMC41NmMwLjk4LTEuNjksMC45OC0xLjY5LDAuOTgtMS42OWMwLTAuMTQsMC4xNC0wLjI4LDAtMC40MmMwLjE0LTAuMjgsMC0wLjU2LTAuMjgtMC43TDE4LjE5LDM3LjQ5eiAgICAgIE0xMy41NCwzNS45NGMwLDEuNjktMS40MSwzLjA5LTMuMTEsMy4wOWMtMS42OSwwLTMuMDktMS40LTMuMDktMy4wOWMwLTEuNjgsMS40LTMuMDgsMy4wOS0zLjA4ICAgICBDMTIuMTMsMzIuODYsMTMuNTQsMzQuMjYsMTMuNTQsMzUuOTR6Ii8+JiN4YTsJCTwvZz4mI3hhOwk8L2c+JiN4YTs8L2c+JiN4YTs8L3N2Zz4=;" vertex="1" parent="9ZSXqyVSEwkqPgxAhCas-41">
          <mxGeometry x="140.87" y="55.129999999999995" width="43.5" height="35.73" as="geometry" />
        </mxCell>
        <mxCell id="9ZSXqyVSEwkqPgxAhCas-22" value="" style="shape=image;verticalLabelPosition=bottom;labelBackgroundColor=#ffffff;verticalAlign=top;aspect=fixed;imageAspect=0;image=data:image/svg+xml,PHN2ZyB4bWxuczpjYz0iaHR0cDovL2NyZWF0aXZlY29tbW9ucy5vcmcvbnMjIiB4bWxuczpkYz0iaHR0cDovL3B1cmwub3JnL2RjL2VsZW1lbnRzLzEuMS8iIHhtbG5zOmlua3NjYXBlPSJodHRwOi8vd3d3Lmlua3NjYXBlLm9yZy9uYW1lc3BhY2VzL2lua3NjYXBlIiB4bWxuczpyZGY9Imh0dHA6Ly93d3cudzMub3JnLzE5OTkvMDIvMjItcmRmLXN5bnRheC1ucyMiIHhtbG5zOnNvZGlwb2RpPSJodHRwOi8vc29kaXBvZGkuc291cmNlZm9yZ2UubmV0L0RURC9zb2RpcG9kaS0wLmR0ZCIgeG1sbnM6c3ZnPSJodHRwOi8vd3d3LnczLm9yZy8yMDAwL3N2ZyIgeG1sbnM9Imh0dHA6Ly93d3cudzMub3JnLzIwMDAvc3ZnIiB4bWxuczp4bGluaz0iaHR0cDovL3d3dy53My5vcmcvMTk5OS94bGluayIgdmVyc2lvbj0iMS4xIiBpZD0ic3ZnMTc4ODAiIGlua3NjYXBlOnZlcnNpb249IjAuOTIuMyAoMjQwNTU0NiwgMjAxOC0wMy0xMSkiIHNvZGlwb2RpOmRvY25hbWU9ImxhcHRvcF93aW5kb3dzLnN2ZyIgeD0iMHB4IiB5PSIwcHgiIHZpZXdCb3g9IjAgMCA4MS43NSA1Ni4yNiIgc3R5bGU9ImVuYWJsZS1iYWNrZ3JvdW5kOm5ldyAwIDAgODEuNzUgNTYuMjY7IiB4bWw6c3BhY2U9InByZXNlcnZlIj4mI3hhOzxzb2RpcG9kaTpuYW1lZHZpZXcgYm9yZGVyY29sb3I9IiM2NjY2NjYiIGJvcmRlcm9wYWNpdHk9IjEiIGZpdC1tYXJnaW4tYm90dG9tPSIwIiBmaXQtbWFyZ2luLWxlZnQ9IjAiIGZpdC1tYXJnaW4tcmlnaHQ9IjAiIGZpdC1tYXJnaW4tdG9wPSIwIiBncmlkdG9sZXJhbmNlPSIxMCIgZ3VpZGV0b2xlcmFuY2U9IjEwIiBpZD0ibmFtZWR2aWV3MTc4ODIiIGlua3NjYXBlOmN1cnJlbnQtbGF5ZXI9InN2ZzE3ODgwIiBpbmtzY2FwZTpjeD0iNTQuNSIgaW5rc2NhcGU6Y3k9IjM3LjUwNzAzOSIgaW5rc2NhcGU6cGFnZW9wYWNpdHk9IjAiIGlua3NjYXBlOnBhZ2VzaGFkb3c9IjIiIGlua3NjYXBlOndpbmRvdy1oZWlnaHQ9IjEwMTciIGlua3NjYXBlOndpbmRvdy1tYXhpbWl6ZWQ9IjEiIGlua3NjYXBlOndpbmRvdy13aWR0aD0iMTkyMCIgaW5rc2NhcGU6d2luZG93LXg9Ii04IiBpbmtzY2FwZTp3aW5kb3cteT0iLTgiIGlua3NjYXBlOnpvb209IjExLjI1ODA0NiIgb2JqZWN0dG9sZXJhbmNlPSIxMCIgcGFnZWNvbG9yPSIjZmZmZmZmIiBzaG93Z3JpZD0iZmFsc2UiPiYjeGE7CTwvc29kaXBvZGk6bmFtZWR2aWV3PiYjeGE7PGcgaWQ9ImcxNzg3OCIgdHJhbnNmb3JtPSJ0cmFuc2xhdGUoLTAuNzUsLTAuNzUxMzIxKSI+JiN4YTsJPHRpdGxlIGlkPSJ0aXRsZTE3ODI4Ij5QYWdlLTE8L3RpdGxlPiYjeGE7CTxnIGlkPSJncm91cDM3NjQtMSIgdHJhbnNmb3JtPSJ0cmFuc2xhdGUoMC43NSwtMC43NTg2NzkpIj4mI3hhOwkJPHRpdGxlIGlkPSJ0aXRsZTE3ODMwIj5MYXB0b3AgKFdpbmRvd3MpPC90aXRsZT4mI3hhOwkJPGcgaWQ9InNoYXBlMzc2NS0yIiB0cmFuc2Zvcm09InRyYW5zbGF0ZSg2Ljc1LC00LjUpIj4mI3hhOwkJCTx0aXRsZSBpZD0idGl0bGUxNzgzMiI+cmVjdDE0OTc8L3RpdGxlPiYjeGE7CQkJJiN4YTsJCQkJPHBhdGggaWQ9InBhdGgxNzgzNCIgaW5rc2NhcGU6Y29ubmVjdG9yLWN1cnZhdHVyZT0iMCIgc3R5bGU9ImZpbGw6I0ZDRkNGQztzdHJva2U6IzU1NkE4QTtzdHJva2Utd2lkdGg6MS41O3N0cm9rZS1taXRlcmxpbWl0OjM7IiBkPSIgICAgIE0wLDU0Ljc2YzAsMS42NiwxLjM0LDMsMywzaDYzYzEuNjYsMCwzLTEuMzQsMy0zdi00NWMwLTEuNjYtMS4zNC0zLTMtM0gzYy0xLjY2LDAtMywxLjM0LTMsM1Y1NC43NnoiLz4mI3hhOwkJPC9nPiYjeGE7CQk8ZyBpZD0ic2hhcGUzNzY2LTQiPiYjeGE7CQkJPHRpdGxlIGlkPSJ0aXRsZTE3ODM3Ij5wYXRoMTQ5OTwvdGl0bGU+JiN4YTsJCQk8cGF0aCBpZD0icGF0aDE3ODM5IiBpbmtzY2FwZTpjb25uZWN0b3ItY3VydmF0dXJlPSIwIiBzdHlsZT0iZmlsbDojNDE0MDQyOyIgZD0iTTc4Ljc1LDU3Ljc2SDMuMTMgICAgIEMxLjY4LDU3Ljg3LDAuMzYsNTYuOTIsMCw1NS41MWg4MS43NUM4MS43NSw1NS41MSw4MC44NCw1Ny43Niw3OC43NSw1Ny43NnoiLz4mI3hhOwkJPC9nPiYjeGE7CQk8ZyBpZD0ic2hhcGUzNzY3LTYiIHRyYW5zZm9ybT0idHJhbnNsYXRlKDAuMDc1LC0yLjI1KSI+JiN4YTsJCQk8dGl0bGUgaWQ9InRpdGxlMTc4NDIiPnBvbHlnb24xNTAxPC90aXRsZT4mI3hhOwkJCTxwYXRoIGlkPSJwYXRoMTc4NDQiIGlua3NjYXBlOmNvbm5lY3Rvci1jdXJ2YXR1cmU9IjAiIHN0eWxlPSJmaWxsOiM1NTZBOEE7IiBkPSJNNzYuNDIsNTQuMDFsNS4yNSwzLjc1SDBsNS45NC0zLjc1SDc2LjQyeiIvPiYjeGE7CQk8L2c+JiN4YTsJCTxnIGlkPSJzaGFwZTM3NjgtOCIgdHJhbnNmb3JtPSJ0cmFuc2xhdGUoMywtMi4yNSkiPiYjeGE7CQkJPHRpdGxlIGlkPSJ0aXRsZTE3ODQ3Ij5wb2x5Z29uMTUwMzwvdGl0bGU+JiN4YTsJCQk8cGF0aCBpZD0icGF0aDE3ODQ5IiBpbmtzY2FwZTpjb25uZWN0b3ItY3VydmF0dXJlPSIwIiBzdHlsZT0iZmlsbDojRTRFREYxOyIgZD0iTTczLjAyLDU1LjUxbDIuNzMsMi4yNUgwbDMuNDUtMi4yNUg3My4wMnoiLz4mI3hhOwkJPC9nPiYjeGE7CQk8ZyBpZD0ic2hhcGUzNzY5LTEwIiB0cmFuc2Zvcm09InRyYW5zbGF0ZSgxMS4yNSwtMTAuNSkiPiYjeGE7CQkJPHRpdGxlIGlkPSJ0aXRsZTE3ODUyIj5yZWN0MTUwNTwvdGl0bGU+JiN4YTsJCQk8cmVjdCBpZD0icmVjdDE3ODU0IiB5PSIxOC4wMSIgc3R5bGU9ImZpbGw6IzJCQzdGNDsiIHdpZHRoPSI2MCIgaGVpZ2h0PSIzOS43NSIvPiYjeGE7CQk8L2c+JiN4YTsJCTxnIGlkPSJzaGFwZTM3NzAtMTIiIHRyYW5zZm9ybT0idHJhbnNsYXRlKDI2LjI1LC0zMS41NzUpIj4mI3hhOwkJCTx0aXRsZSBpZD0idGl0bGUxNzg1NyI+cG9seWdvbjE1MDc8L3RpdGxlPiYjeGE7CQkJPHBhdGggaWQ9InBhdGgxNzg1OSIgaW5rc2NhcGU6Y29ubmVjdG9yLWN1cnZhdHVyZT0iMCIgc3R5bGU9ImZpbGw6I0ZGRkZGRjsiIGQ9Ik0wLDQ5LjI5djguNDdoMTEuMjVWNDcuMzNMMCw0OS4yOXoiLz4mI3hhOwkJPC9nPiYjeGE7CQk8ZyBpZD0ic2hhcGUzNzcxLTE0IiB0cmFuc2Zvcm09InRyYW5zbGF0ZSgzOSwtMzEuNSkiPiYjeGE7CQkJPHRpdGxlIGlkPSJ0aXRsZTE3ODYyIj5wb2x5Z29uMTUwOTwvdGl0bGU+JiN4YTsJCQk8cGF0aCBpZD0icGF0aDE3ODY0IiBpbmtzY2FwZTpjb25uZWN0b3ItY3VydmF0dXJlPSIwIiBzdHlsZT0iZmlsbDojRkZGRkZGOyIgZD0iTTEzLjUsNDUuNDlMMCw0Ny4yOHYxMC40OGgxMy41VjQ1LjQ5eiIvPiYjeGE7CQk8L2c+JiN4YTsJCTxnIGlkPSJzaGFwZTM3NzItMTYiIHRyYW5zZm9ybT0idHJhbnNsYXRlKDM5LC0xNy43Mzc1KSI+JiN4YTsJCQk8dGl0bGUgaWQ9InRpdGxlMTc4NjciPnBvbHlnb24xNTExPC90aXRsZT4mI3hhOwkJCTxwYXRoIGlkPSJwYXRoMTc4NjkiIGlua3NjYXBlOmNvbm5lY3Rvci1jdXJ2YXR1cmU9IjAiIHN0eWxlPSJmaWxsOiNGRkZGRkY7IiBkPSJNMTMuNSw1Ny43NlY0NS41SDB2MTAuMzhMMTMuNSw1Ny43NnoiLz4mI3hhOwkJPC9nPiYjeGE7CQk8ZyBpZD0ic2hhcGUzNzczLTE4IiB0cmFuc2Zvcm09InRyYW5zbGF0ZSgyNi4yNSwtMTkuODkpIj4mI3hhOwkJCTx0aXRsZSBpZD0idGl0bGUxNzg3MiI+cG9seWdvbjE1MTM8L3RpdGxlPiYjeGE7CQkJPHBhdGggaWQ9InBhdGgxNzg3NCIgaW5rc2NhcGU6Y29ubmVjdG9yLWN1cnZhdHVyZT0iMCIgc3R5bGU9ImZpbGw6I0ZGRkZGRjsiIGQ9Ik0wLDU2LjI0bDExLjI1LDEuNTJWNDcuNjVIMFY1Ni4yNHoiLz4mI3hhOwkJPC9nPiYjeGE7CTwvZz4mI3hhOzwvZz4mI3hhOzwvc3ZnPg==;" vertex="1" parent="9ZSXqyVSEwkqPgxAhCas-41">
          <mxGeometry x="10.86999999999999" y="45" width="82" height="56" as="geometry" />
        </mxCell>
        <mxCell id="9ZSXqyVSEwkqPgxAhCas-31" value="" style="shape=image;verticalLabelPosition=bottom;labelBackgroundColor=#ffffff;verticalAlign=top;aspect=fixed;imageAspect=0;image=data:image/svg+xml,PHN2ZyB4bWxuczpkYz0iaHR0cDovL3B1cmwub3JnL2RjL2VsZW1lbnRzLzEuMS8iIHhtbG5zOmNjPSJodHRwOi8vY3JlYXRpdmVjb21tb25zLm9yZy9ucyMiIHhtbG5zOnJkZj0iaHR0cDovL3d3dy53My5vcmcvMTk5OS8wMi8yMi1yZGYtc3ludGF4LW5zIyIgeG1sbnM6c3ZnPSJodHRwOi8vd3d3LnczLm9yZy8yMDAwL3N2ZyIgeG1sbnM9Imh0dHA6Ly93d3cudzMub3JnLzIwMDAvc3ZnIiB4bWxuczp4bGluaz0iaHR0cDovL3d3dy53My5vcmcvMTk5OS94bGluayIgeG1sbnM6c29kaXBvZGk9Imh0dHA6Ly9zb2RpcG9kaS5zb3VyY2Vmb3JnZS5uZXQvRFREL3NvZGlwb2RpLTAuZHRkIiB4bWxuczppbmtzY2FwZT0iaHR0cDovL3d3dy5pbmtzY2FwZS5vcmcvbmFtZXNwYWNlcy9pbmtzY2FwZSIgdmVyc2lvbj0iMS4xIiBpZD0iTGF5ZXJfMSIgeD0iMHB4IiB5PSIwcHgiIHZpZXdCb3g9IjAgMCAzMS40Mzk5ODcgMzIuMzk5OTk4IiB4bWw6c3BhY2U9InByZXNlcnZlIiBzb2RpcG9kaTpkb2NuYW1lPSJhZGQuc3ZnIiB3aWR0aD0iMzEuNDM5OTg3IiBoZWlnaHQ9IjMyLjM5OTk5OCIgaW5rc2NhcGU6dmVyc2lvbj0iMC45Mi4zICgyNDA1NTQ2LCAyMDE4LTAzLTExKSI+PG1ldGFkYXRhIGlkPSJtZXRhZGF0YTQ0MzQ0Ij48cmRmOlJERj48Y2M6V29yayByZGY6YWJvdXQ9IiI+PGRjOmZvcm1hdD5pbWFnZS9zdmcreG1sPC9kYzpmb3JtYXQ+PGRjOnR5cGUgcmRmOnJlc291cmNlPSJodHRwOi8vcHVybC5vcmcvZGMvZGNtaXR5cGUvU3RpbGxJbWFnZSIvPjxkYzp0aXRsZS8+PC9jYzpXb3JrPjwvcmRmOlJERj48L21ldGFkYXRhPjxkZWZzIGlkPSJkZWZzNDQzNDIiLz48c29kaXBvZGk6bmFtZWR2aWV3IHBhZ2Vjb2xvcj0iI2ZmZmZmZiIgYm9yZGVyY29sb3I9IiM2NjY2NjYiIGJvcmRlcm9wYWNpdHk9IjEiIG9iamVjdHRvbGVyYW5jZT0iMTAiIGdyaWR0b2xlcmFuY2U9IjEwIiBndWlkZXRvbGVyYW5jZT0iMTAiIGlua3NjYXBlOnBhZ2VvcGFjaXR5PSIwIiBpbmtzY2FwZTpwYWdlc2hhZG93PSIyIiBpbmtzY2FwZTp3aW5kb3ctd2lkdGg9IjE5MjAiIGlua3NjYXBlOndpbmRvdy1oZWlnaHQ9IjEwMTciIGlkPSJuYW1lZHZpZXc0NDM0MCIgc2hvd2dyaWQ9ImZhbHNlIiBmaXQtbWFyZ2luLXRvcD0iMCIgZml0LW1hcmdpbi1sZWZ0PSIwIiBmaXQtbWFyZ2luLXJpZ2h0PSIwIiBmaXQtbWFyZ2luLWJvdHRvbT0iMCIgaW5rc2NhcGU6em9vbT0iMS4wMzAzMDMiIGlua3NjYXBlOmN4PSItMTEuMDQ1MDEzIiBpbmtzY2FwZTpjeT0iLTI4Mi4wMiIgaW5rc2NhcGU6d2luZG93LXg9Ii04IiBpbmtzY2FwZTp3aW5kb3cteT0iLTgiIGlua3NjYXBlOndpbmRvdy1tYXhpbWl6ZWQ9IjEiIGlua3NjYXBlOmN1cnJlbnQtbGF5ZXI9IkxheWVyXzEiLz4mI3hhOyYjeGE7PGcgaWQ9Imc0NDMzNyIgdHJhbnNmb3JtPSJ0cmFuc2xhdGUoLTMwOC40MjAwMSwtMTA2LjMzKSI+JiN4YTsJPGRlZnMgaWQ9ImRlZnM0NDMyMiI+JiN4YTsJCTxyZWN0IGlkPSJTVkdJRF8zXyIgeD0iMzA4LjQyMDAxIiB5PSIxMDYuMzMiIHdpZHRoPSIzMy45OTAwMDIiIGhlaWdodD0iMzMuOTgiLz4mI3hhOwk8L2RlZnM+JiN4YTsJPGNsaXBQYXRoIGlkPSJTVkdJRF80XyI+JiN4YTsJCTx1c2UgeGxpbms6aHJlZj0iI1NWR0lEXzNfIiBzdHlsZT0ib3ZlcmZsb3c6dmlzaWJsZSIgaWQ9InVzZTQ0MzI0IiB4PSIwIiB5PSIwIiB3aWR0aD0iMTAwJSIgaGVpZ2h0PSIxMDAlIi8+JiN4YTsJPC9jbGlwUGF0aD4mI3hhOwk8ZyBjbGlwLXBhdGg9InVybCgjU1ZHSURfNF8pIiBpZD0iZzQ0MzM1Ij4mI3hhOwkJPGRlZnMgaWQ9ImRlZnM0NDMyOCI+JiN4YTsJCQk8cmVjdCBpZD0iU1ZHSURfNV8iIHg9IjMwOC40MjAwMSIgeT0iMTA2LjMyIiB3aWR0aD0iMzMuOTkwMDAyIiBoZWlnaHQ9IjMzLjk5MDAwMiIvPiYjeGE7CQk8L2RlZnM+JiN4YTsJCTxjbGlwUGF0aCBpZD0iU1ZHSURfNl8iPiYjeGE7CQkJPHVzZSB4bGluazpocmVmPSIjU1ZHSURfNV8iIHN0eWxlPSJvdmVyZmxvdzp2aXNpYmxlIiBpZD0idXNlNDQzMzAiIHg9IjAiIHk9IjAiIHdpZHRoPSIxMDAlIiBoZWlnaHQ9IjEwMCUiLz4mI3hhOwkJPC9jbGlwUGF0aD4mI3hhOwkJPHBvbHlnb24gc3R5bGU9ImZpbGw6IzcxYmU3MiIgcG9pbnRzPSIzMzkuODYsMTIwLjY0IDMzOS44NiwxMjQuMjkgMzI2LjA5LDEyNC4yOSAzMjYuMDksMTM4LjczIDMyMi4yLDEzOC43MyAzMjIuMiwxMjQuMjkgMzA4LjQyLDEyNC4yOSAzMDguNDIsMTIwLjY0IDMyMi4yLDEyMC42NCAzMjIuMiwxMDYuMzIgMzI2LjA5LDEwNi4zMiAzMjYuMDksMTIwLjY0ICIgY2xpcC1wYXRoPSJ1cmwoI1NWR0lEXzZfKSIgaWQ9InBvbHlnb240NDMzMyIvPiYjeGE7CTwvZz4mI3hhOzwvZz4mI3hhOzwvc3ZnPg==;" vertex="1" parent="9ZSXqyVSEwkqPgxAhCas-41">
          <mxGeometry x="105.74999999999999" y="62.66999999999996" width="20" height="20.65" as="geometry" />
        </mxCell>
        <mxCell id="9ZSXqyVSEwkqPgxAhCas-33" value="Firebase messaging services" style="text;html=1;strokeColor=none;fillColor=none;align=center;verticalAlign=middle;whiteSpace=wrap;rounded=0;" vertex="1" parent="9ZSXqyVSEwkqPgxAhCas-41">
          <mxGeometry x="92.86999999999999" y="101" width="127.12" height="20" as="geometry" />
        </mxCell>
        <mxCell id="9ZSXqyVSEwkqPgxAhCas-29" style="edgeStyle=orthogonalEdgeStyle;curved=1;orthogonalLoop=1;jettySize=auto;html=1;exitX=0.5;exitY=1;exitDx=0;exitDy=0;entryX=0.5;entryY=0;entryDx=0;entryDy=0;" edge="1" parent="9ZSXqyVSEwkqPgxAhCas-41" source="9ZSXqyVSEwkqPgxAhCas-9" target="9ZSXqyVSEwkqPgxAhCas-22">
          <mxGeometry relative="1" as="geometry" />
        </mxCell>
        <mxCell id="9ZSXqyVSEwkqPgxAhCas-48" value="" style="group" vertex="1" connectable="0" parent="1">
          <mxGeometry x="334.5" y="80" width="148" height="93.35" as="geometry" />
        </mxCell>
        <mxCell id="9ZSXqyVSEwkqPgxAhCas-64" value="" style="shape=image;verticalLabelPosition=bottom;labelBackgroundColor=#ffffff;verticalAlign=top;aspect=fixed;imageAspect=0;image=https://firebase.google.com/downloads/brand-guidelines/PNG/logo-vertical.png;" vertex="1" parent="9ZSXqyVSEwkqPgxAhCas-48">
          <mxGeometry x="52.51" y="-20" width="47.49" height="77.36" as="geometry" />
        </mxCell>
        <mxCell id="9ZSXqyVSEwkqPgxAhCas-47" value="&lt;b&gt;Firebase Cloud Messaging&lt;/b&gt;" style="text;html=1;strokeColor=none;fillColor=none;align=center;verticalAlign=middle;whiteSpace=wrap;rounded=0;" vertex="1" parent="9ZSXqyVSEwkqPgxAhCas-48">
          <mxGeometry y="40" width="148" height="20" as="geometry" />
        </mxCell>
        <mxCell id="9ZSXqyVSEwkqPgxAhCas-50" value="" style="group" vertex="1" connectable="0" parent="1">
          <mxGeometry x="383" y="350" width="51" height="89" as="geometry" />
        </mxCell>
        <mxCell id="9ZSXqyVSEwkqPgxAhCas-38" value="" style="shape=image;verticalLabelPosition=bottom;labelBackgroundColor=#ffffff;verticalAlign=top;aspect=fixed;imageAspect=0;image=data:image/svg+xml,PHN2ZyB4bWxuczpkYz0iaHR0cDovL3B1cmwub3JnL2RjL2VsZW1lbnRzLzEuMS8iIHhtbG5zOmNjPSJodHRwOi8vY3JlYXRpdmVjb21tb25zLm9yZy9ucyMiIHhtbG5zOnJkZj0iaHR0cDovL3d3dy53My5vcmcvMTk5OS8wMi8yMi1yZGYtc3ludGF4LW5zIyIgeG1sbnM6c3ZnPSJodHRwOi8vd3d3LnczLm9yZy8yMDAwL3N2ZyIgeG1sbnM9Imh0dHA6Ly93d3cudzMub3JnLzIwMDAvc3ZnIiB4bWxuczpzb2RpcG9kaT0iaHR0cDovL3NvZGlwb2RpLnNvdXJjZWZvcmdlLm5ldC9EVEQvc29kaXBvZGktMC5kdGQiIHhtbG5zOmlua3NjYXBlPSJodHRwOi8vd3d3Lmlua3NjYXBlLm9yZy9uYW1lc3BhY2VzL2lua3NjYXBlIiB2ZXJzaW9uPSIxLjEiIGlkPSJzdmcxMTEyNyIgaW5rc2NhcGU6dmVyc2lvbj0iMC45Mi4zICgyNDA1NTQ2LCAyMDE4LTAzLTExKSIgc29kaXBvZGk6ZG9jbmFtZT0id2ViX2FwcHMuc3ZnIiB4PSIwcHgiIHk9IjBweCIgdmlld0JveD0iMCAwIDUxLjAyOTMxNiA1MS4wMTk5OTkiIHhtbDpzcGFjZT0icHJlc2VydmUiIHdpZHRoPSI1MS4wMjkzMTYiIGhlaWdodD0iNTEuMDIiPjxtZXRhZGF0YSBpZD0ibWV0YWRhdGExMjM5MiI+PHJkZjpSREY+PGNjOldvcmsgcmRmOmFib3V0PSIiPjxkYzpmb3JtYXQ+aW1hZ2Uvc3ZnK3htbDwvZGM6Zm9ybWF0PjxkYzp0eXBlIHJkZjpyZXNvdXJjZT0iaHR0cDovL3B1cmwub3JnL2RjL2RjbWl0eXBlL1N0aWxsSW1hZ2UiLz48ZGM6dGl0bGUvPjwvY2M6V29yaz48L3JkZjpSREY+PC9tZXRhZGF0YT48ZGVmcyBpZD0iZGVmczEyMzkwIj4mI3hhOwkmI3hhOwkmI3hhOyYjeGE7CQkmI3hhOwkJJiN4YTsJCSYjeGE7CSYjeGE7CQkJJiN4YTsJCQkmI3hhOwkJCSYjeGE7CQkmI3hhOwkJCSYjeGE7CQkJJiN4YTsJCQkmI3hhOwkJJiN4YTsJCQkJJiN4YTsJCQkmI3hhOwkJCQkmI3hhOwkJCSYjeGE7CQkJCQkmI3hhOwkJCQkmI3hhOwkJCQkJJiN4YTsJCQkJPC9kZWZzPiYjeGE7PGZpbHRlciBpZD0iZmlsdGVyXzIiPiYjeGE7CTxmZUdhdXNzaWFuQmx1ciBpZD0iZmVHYXVzc2lhbkJsdXIxMTEwMCIgc3RkRGV2aWF0aW9uPSIyIi8+JiN4YTs8L2ZpbHRlcj4mI3hhOzxzb2RpcG9kaTpuYW1lZHZpZXcgYm9yZGVyY29sb3I9IiM2NjY2NjYiIGJvcmRlcm9wYWNpdHk9IjEiIGZpdC1tYXJnaW4tYm90dG9tPSIwIiBmaXQtbWFyZ2luLWxlZnQ9IjAiIGZpdC1tYXJnaW4tcmlnaHQ9IjAiIGZpdC1tYXJnaW4tdG9wPSIwIiBncmlkdG9sZXJhbmNlPSIxMCIgZ3VpZGV0b2xlcmFuY2U9IjEwIiBpZD0ibmFtZWR2aWV3MTExMjkiIGlua3NjYXBlOmN1cnJlbnQtbGF5ZXI9InN2ZzExMTI3IiBpbmtzY2FwZTpjeD0iMzQuNTc5OTYxIiBpbmtzY2FwZTpjeT0iMzMuNzcwNzQ2IiBpbmtzY2FwZTpwYWdlb3BhY2l0eT0iMCIgaW5rc2NhcGU6cGFnZXNoYWRvdz0iMiIgaW5rc2NhcGU6d2luZG93LWhlaWdodD0iMTAxNyIgaW5rc2NhcGU6d2luZG93LW1heGltaXplZD0iMSIgaW5rc2NhcGU6d2luZG93LXdpZHRoPSIxOTIwIiBpbmtzY2FwZTp3aW5kb3cteD0iLTgiIGlua3NjYXBlOndpbmRvdy15PSItOCIgaW5rc2NhcGU6em9vbT0iOC42MTMxNjY5IiBvYmplY3R0b2xlcmFuY2U9IjEwIiBwYWdlY29sb3I9IiNmZmZmZmYiIHNob3dncmlkPSJmYWxzZSI+JiN4YTsJPC9zb2RpcG9kaTpuYW1lZHZpZXc+JiN4YTs8cGF0aCBkPSJtIDQxLjAxNDUyNiw0NS43NiBjIC00LjYyLDMuNTMgLTEwLjA3LDUuMjYgLTE1LjQ3LDUuMjYgLTcuNjgsMCAtMTUuMjcsLTMuNDUgLTIwLjI3OTk5OTYsLTEwLjAxIEMgLTMuMzA1NDc0LDI5LjgyIC0xLjE5NTQ3NCwxMy44MyAxMC4wMTQ1MjYsNS4yNSBjIDQuNjIsLTMuNTUgMTAuMDgsLTUuMjUgMTUuNDgsLTUuMjUgNy42NywwIDE1LjI2LDMuNDUgMjAuMjgsMTAuMDEgOC41NywxMS4xOCA2LjQzLDI3LjE5IC00Ljc2LDM1Ljc1IHoiIHN0eWxlPSJmaWxsOiM1OWI0ZDkiIGlua3NjYXBlOmNvbm5lY3Rvci1jdXJ2YXR1cmU9IjAiIGlkPSJwYXRoMTExMTMiLz48cGF0aCBkPSJtIDM2LjMzMTI3NiwyOS45ODI5NyBjIDEuODUsMi40MSA1LjI5LDIuODUgNy43LDEuMDIgMC4xMiwtMC4wOSAwLjIyLC0wLjIxIDAuMzMsLTAuMzEgMi40NiwxLjczIDQuMTcsMi44NyA1LjEzLDMuNTMgMC4yOCwtMC43NCAwLjQ4LC0xLjQ1IDAuNjgsLTIuMTkgLTEuMDEsLTAuNzYgLTIuMzksLTEuODEgLTQuMzcsLTMuNDIgMC42NSwtMS43MiAwLjQ0LC0zLjcyIC0wLjc1LC01LjI4IC0xLjcsLTIuMjEgLTQuNzIsLTIuNzcgLTcuMDgsLTEuNDEgLTIuNiwtMi4zMyAtNS40NSwtNSAtOC40NiwtNy45OSA5LjM1LC01LjAzIDE2LC00LjI5IDE2LC00LjI5IC0xLjExLC0xLjQyIC0yLjM2LC0yLjY2IC0zLjY4LC0zLjc4IC0zLjk1LC0wLjYxIC0xMC4wNywtMC41NCAtMTcuMDcsMy4xOSBsIC0wLjAxLC0wLjAxIHYgMCBjIC0yLjMzLC0yLjQ0IC00LjcxLC01LjA2IC03LjEyLC03Ljg3IC0xLjE2LDAuMzcgLTIuMjksMC44MyAtMy4zOCwxLjM4IDEuNzgsMi45MiA0LjE4LDUuODcgNi44OSw4Ljc0IDAsMC4wMSAwLjAxLDAuMDEgMC4wMiwwLjAyIC0yLjI2LDEuNTcgLTQuNzcsMy42OCAtNy4wOSw2LjEzIC0wLjMsMC4zMiAtMC41OCwwLjY0IC0wLjg2LDAuOTUgLTEuMzgsLTAuMjkgLTIuODQsLTAuMiAtNC4xOTk5OTk2LDAuMjkgLTIuMzEsLTQuOTggLTIuMTMsLTguOTkgLTEuNzYsLTExLjA1IC0xLDEuMDUgLTEuOTQsMi4xNSAtMi43NTAwMDA0LDMuMzMgLTAuNiwyLjQ3IC0wLjc3LDYuMDIgMS4wMTAwMDA0LDEwLjMgLTIuMDYwMDAwNCwyLjcgLTIuMTYwMDAwNCw2LjUyIC0wLjAxLDkuMzUgMC4xOCwwLjIzIDAuMzcsMC40NSAwLjU3LDAuNjUgLTAuOTQwMDAwNCwzLjIgLTEuMzYwMDAwNCw2LjI5IC0xLjQ5MDAwMDQsOC45NCAwLjI0LDAuMzMgMC4yNCwwLjYgMC40OCwwLjkyIDEuMjMwMDAwNCwxLjU3IDIuNzYwMDAwNCwyLjg5IDQuMjUwMDAwNCw0LjA5IC0wLjE4LC0yLjgxIDAuMDEsLTYuOTUgMS43NDk5OTk2LC0xMS42MSAxLjIsMC4wOSAyLjQxLC0wLjA5IDMuNTUsLTAuNTcgMC42NiwwLjU3IDEuMzQsMS4xNSAyLjA3LDEuNzQgMi41LDEuOTggNSwzLjUzIDcuNDMsNC43NCAtMC4xMiwxLjI0IDAuMTksMi41MiAwLjk5LDMuNTkgMS43MiwyLjIyIDQuOTEsMi42NCA3LjEzLDAuOTQgMC40NiwtMC4zNiAwLjgzLC0wLjc4IDEuMTMsLTEuMjQgMy45NywwLjg4IDcuNDQsMS4wNCAxMC4wMSwxLjA0IDAuMzksMCAyLjIyLC0yLjQ5IDMuMjYsLTQuMDMgLTEuNTYsMC4zMyAtNi4yLDAuOTcgLTEyLjU1LC0wLjg2IC0wLjE1LC0wLjcxIC0wLjQ0LC0xLjQgLTAuOTEsLTIuMDIgLTEuNjIsLTIuMTEgLTQuNTYsLTIuNTcgLTYuNzYsLTEuMTUgLTIuMiwtMS4yIC00LjUxLC0yLjcgLTYuODksLTQuNTkgLTAuNDgsLTAuMzggLTAuOTUsLTAuNzYgLTEuMzksLTEuMTQgMS40NSwtMi4yOSAxLjYxLC01LjIzIDAuMzIsLTcuNyAwLjMsLTAuMjkgMC41OCwtMC41OSAwLjg5LC0wLjg4IDIuMzYsLTIuMiA0LjU4LC0zLjk2IDYuNjYsLTUuMzggLTAuMDksLTAuMDggLTAuMTYsLTAuMTYgLTAuMjUsLTAuMjQgMC4wOSwwLjA4IDAuMTYsMC4xNiAwLjI1LDAuMjQgdiAwIGMgMy4xOCwyLjk0IDYuNTYsNS43MyA5Ljc2LDguMjMgLTAuODUsMS43OSAtMC43MiwzLjk4IDAuNTcsNS42NiB6IiBzdHlsZT0iZmlsbDojZmZmZmZmIiBpbmtzY2FwZTpjb25uZWN0b3ItY3VydmF0dXJlPSIwIiBpZD0icGF0aDExMTIxIi8+JiN4YTs8L3N2Zz4=;" vertex="1" parent="9ZSXqyVSEwkqPgxAhCas-50">
          <mxGeometry width="51" height="51" as="geometry" />
        </mxCell>
        <mxCell id="9ZSXqyVSEwkqPgxAhCas-49" value="&lt;span style=&quot;color: rgb(0 , 0 , 0) ; font-family: &amp;#34;helvetica&amp;#34; ; font-size: 12px ; font-style: normal ; font-weight: 400 ; letter-spacing: normal ; text-align: center ; text-indent: 0px ; text-transform: none ; word-spacing: 0px ; background-color: rgb(248 , 249 , 250) ; display: inline ; float: none&quot;&gt;Web API&lt;/span&gt;" style="text;whiteSpace=wrap;html=1;" vertex="1" parent="9ZSXqyVSEwkqPgxAhCas-50">
          <mxGeometry x="1" y="59" width="50" height="30" as="geometry" />
        </mxCell>
        <mxCell id="9ZSXqyVSEwkqPgxAhCas-51" style="edgeStyle=orthogonalEdgeStyle;orthogonalLoop=1;jettySize=auto;html=1;exitX=0.5;exitY=0;exitDx=0;exitDy=0;rounded=1;" edge="1" parent="1" source="9ZSXqyVSEwkqPgxAhCas-40">
          <mxGeometry relative="1" as="geometry">
            <mxPoint x="360" y="400" as="targetPoint" />
            <Array as="points">
              <mxPoint x="198" y="400" />
            </Array>
          </mxGeometry>
        </mxCell>
        <mxCell id="9ZSXqyVSEwkqPgxAhCas-54" style="edgeStyle=orthogonalEdgeStyle;orthogonalLoop=1;jettySize=auto;html=1;exitX=0.5;exitY=0;exitDx=0;exitDy=0;rounded=1;" edge="1" parent="1" source="9ZSXqyVSEwkqPgxAhCas-43">
          <mxGeometry relative="1" as="geometry">
            <mxPoint x="460" y="400" as="targetPoint" />
            <Array as="points">
              <mxPoint x="622" y="400" />
            </Array>
          </mxGeometry>
        </mxCell>
        <mxCell id="9ZSXqyVSEwkqPgxAhCas-55" value="&lt;div style=&quot;text-align: center&quot;&gt;&lt;font face=&quot;helvetica&quot;&gt;Device tokens storage&lt;/font&gt;&lt;br&gt;&lt;/div&gt;" style="text;whiteSpace=wrap;html=1;" vertex="1" parent="1">
          <mxGeometry x="360" y="570" width="93" height="30" as="geometry" />
        </mxCell>
        <mxCell id="9ZSXqyVSEwkqPgxAhCas-58" value="" style="group" vertex="1" connectable="0" parent="1">
          <mxGeometry x="350" y="220" width="198" height="264" as="geometry" />
        </mxCell>
        <mxCell id="9ZSXqyVSEwkqPgxAhCas-56" value="" style="shape=image;verticalLabelPosition=bottom;labelBackgroundColor=#ffffff;verticalAlign=top;aspect=fixed;imageAspect=0;image=data:image/svg+xml,PHN2ZyB4bWxuczpkYz0iaHR0cDovL3B1cmwub3JnL2RjL2VsZW1lbnRzLzEuMS8iIHhtbG5zOmNjPSJodHRwOi8vY3JlYXRpdmVjb21tb25zLm9yZy9ucyMiIHhtbG5zOnJkZj0iaHR0cDovL3d3dy53My5vcmcvMTk5OS8wMi8yMi1yZGYtc3ludGF4LW5zIyIgeG1sbnM6c3ZnPSJodHRwOi8vd3d3LnczLm9yZy8yMDAwL3N2ZyIgeG1sbnM9Imh0dHA6Ly93d3cudzMub3JnLzIwMDAvc3ZnIiB4bWxuczpzb2RpcG9kaT0iaHR0cDovL3NvZGlwb2RpLnNvdXJjZWZvcmdlLm5ldC9EVEQvc29kaXBvZGktMC5kdGQiIHhtbG5zOmlua3NjYXBlPSJodHRwOi8vd3d3Lmlua3NjYXBlLm9yZy9uYW1lc3BhY2VzL2lua3NjYXBlIiB2ZXJzaW9uPSIxLjEiIGlkPSJzdmcyNjE4OCIgeD0iMHB4IiB5PSIwcHgiIHZpZXdCb3g9IjAgMCA1Ny4zMDk5MyA1Mi44MTk5OTkiIHhtbDpzcGFjZT0icHJlc2VydmUiIHNvZGlwb2RpOmRvY25hbWU9ImF6dXJlX2Z1bmN0aW9ucy5zdmciIHdpZHRoPSI1Ny4zMDk5MjkiIGhlaWdodD0iNTIuODIiIGlua3NjYXBlOnZlcnNpb249IjAuOTIuMyAoMjQwNTU0NiwgMjAxOC0wMy0xMSkiPjxtZXRhZGF0YSBpZD0ibWV0YWRhdGE0MTk3MTciPjxyZGY6UkRGPjxjYzpXb3JrIHJkZjphYm91dD0iIj48ZGM6Zm9ybWF0PmltYWdlL3N2Zyt4bWw8L2RjOmZvcm1hdD48ZGM6dHlwZSByZGY6cmVzb3VyY2U9Imh0dHA6Ly9wdXJsLm9yZy9kYy9kY21pdHlwZS9TdGlsbEltYWdlIi8+PGRjOnRpdGxlLz48L2NjOldvcms+PC9yZGY6UkRGPjwvbWV0YWRhdGE+PGRlZnMgaWQ9ImRlZnM0MTk3MTUiPiYjeGE7CSYjeGE7CSYjeGE7JiN4YTsJCSYjeGE7CQkmI3hhOwkJJiN4YTsJCSYjeGE7CQkmI3hhOwkmI3hhOwkJCSYjeGE7CQkJJiN4YTsJCQkmI3hhOwkJCQkmI3hhOwkJJiN4YTsJCQkmI3hhOwkJCSYjeGE7CQkJJiN4YTsJCSYjeGE7CQkJJiN4YTsJCQkmI3hhOwkJCSYjeGE7CQkmI3hhOwkJCSYjeGE7CQkJJiN4YTsJCQkmI3hhOwkJPC9kZWZzPiYjeGE7PGZpbHRlciBpZD0iZmlsdGVyXzIiPiYjeGE7CTxmZUdhdXNzaWFuQmx1ciBpZD0iZmVHYXVzc2lhbkJsdXIyNjE0NSIgc3RkRGV2aWF0aW9uPSIyIi8+JiN4YTs8L2ZpbHRlcj4mI3hhOzxzb2RpcG9kaTpuYW1lZHZpZXcgYm9yZGVyY29sb3I9IiM2NjY2NjYiIGJvcmRlcm9wYWNpdHk9IjEiIGZpdC1tYXJnaW4tYm90dG9tPSIwIiBmaXQtbWFyZ2luLWxlZnQ9IjAiIGZpdC1tYXJnaW4tcmlnaHQ9IjAiIGZpdC1tYXJnaW4tdG9wPSIwIiBncmlkdG9sZXJhbmNlPSIxMCIgZ3VpZGV0b2xlcmFuY2U9IjEwIiBpZD0ibmFtZWR2aWV3MjYxOTAiIGlua3NjYXBlOmN1cnJlbnQtbGF5ZXI9InN2ZzI2MTg4IiBpbmtzY2FwZTpjeD0iOS4zODYxNjQ5IiBpbmtzY2FwZTpjeT0iMTguMTA2MzA2IiBpbmtzY2FwZTpwYWdlb3BhY2l0eT0iMCIgaW5rc2NhcGU6cGFnZXNoYWRvdz0iMiIgaW5rc2NhcGU6d2luZG93LWhlaWdodD0iMTAxNyIgaW5rc2NhcGU6d2luZG93LW1heGltaXplZD0iMSIgaW5rc2NhcGU6d2luZG93LXdpZHRoPSIxOTIwIiBpbmtzY2FwZTp3aW5kb3cteD0iLTgiIGlua3NjYXBlOndpbmRvdy15PSItOCIgaW5rc2NhcGU6em9vbT0iOS4wMzkyMDQ2IiBvYmplY3R0b2xlcmFuY2U9IjEwIiBwYWdlY29sb3I9IiNmZmZmZmYiIHNob3dncmlkPSJmYWxzZSI+JiN4YTsJPC9zb2RpcG9kaTpuYW1lZHZpZXc+JiN4YTs8cGF0aCBkPSJtIDU2LjkzNzkxNCwyNi43NjYyIGMgMC41NCwtMC41MyAwLjQ1LC0xLjUyIDAsLTIuMDYgbCAtMi43NywtMi43NyAtMTIuMzYsLTEyIGMgLTAuNTMsLTAuNTMgLTEuMzQsLTAuNTMgLTEuOTYsMCAtMC41NCwwLjU0IC0wLjcyLDEuNTMgMCwyLjA2IGwgMTIuOTcsMTIuNzEgYyAwLjU0LDAuNTQgMC41NCwxLjUzIDAsMi4wNiBsIC0xMy4yNCwxMy4xNiBjIC0wLjU0LDAuNTQgLTAuNTQsMS41MiAwLDIuMDYgMC41MywwLjU0IDEuNTIsMC40NSAxLjk3LDAgbCAxMi4yNiwtMTIuMTcgYyAwLDAgMCwwIDAuMDksLTAuMDkgeiIgc3R5bGU9ImNsaXAtcnVsZTpldmVub2RkO2ZpbGw6IzM5OTljNjtmaWxsLXJ1bGU6ZXZlbm9kZCIgaW5rc2NhcGU6Y29ubmVjdG9yLWN1cnZhdHVyZT0iMCIgaWQ9InBhdGgyNjE1OCIvPjxwYXRoIGQ9Im0gMC4zNzIwMTM5LDI2Ljc2NjIgYyAtMC41NCwtMC41MyAtMC40NSwtMS41MiAwLC0yLjA2IGwgMi43NywtMi43NyAxMi4zNTAwMDAxLC0xMiBjIDAuNTQsLTAuNTMgMS4zNSwtMC41MyAxLjk3LDAgMC41NCwwLjU0IDAuNzIsMS41MyAwLDIuMDYgbCAtMTIuNzEwMDAwMSwxMi43MSBjIC0wLjUzLDAuNTQgLTAuNTMsMS41MyAwLDIuMDYgbCAxMi45ODAwMDAxLDEzLjE2IGMgMC41NCwwLjU0IDAuNTQsMS41MiAwLDIuMDYgLTAuNTMsMC41NCAtMS41MiwwLjQ1IC0xLjk3LDAgTCAzLjIzMjAxMzksMjkuOTk2MiBjIDAsMCAwLDAgLTAuMDksLTAuMDkgeiIgc3R5bGU9ImNsaXAtcnVsZTpldmVub2RkO2ZpbGw6IzM5OTljNjtmaWxsLXJ1bGU6ZXZlbm9kZCIgaW5rc2NhcGU6Y29ubmVjdG9yLWN1cnZhdHVyZT0iMCIgaWQ9InBhdGgyNjE2NiIvPjxwYXRoIGQ9Im0gNDIuNjE1MDE0LDAgaCAtMTcuNDUgbCAtOS40LDI2LjUgMTEuNDYsMC4wOSAtOC45NSwyNi4yMyAyNC43LC0zNSBoIC0xMS45OSB6IiBzdHlsZT0iY2xpcC1ydWxlOmV2ZW5vZGQ7ZmlsbDojZmNkMTE2O2ZpbGwtcnVsZTpldmVub2RkIiBpbmtzY2FwZTpjb25uZWN0b3ItY3VydmF0dXJlPSIwIiBpZD0icGF0aDI2MTc0Ii8+PHBhdGggZD0iTSAzMC45ODEzMTQsMTcuODIgNDIuNjIxMzE0LDAgaCAtOS4xMyBsIC05LjY3LDIyLjAyIDExLjQ2LDAuMDkgLTE3LjAxLDMwLjcxIDI0LjcxLC0zNSB6IiBzdHlsZT0iY2xpcC1ydWxlOmV2ZW5vZGQ7ZmlsbDojZmY4YzAwO2ZpbGwtb3BhY2l0eTowLjM7ZmlsbC1ydWxlOmV2ZW5vZGQiIGlua3NjYXBlOmNvbm5lY3Rvci1jdXJ2YXR1cmU9IjAiIGlkPSJwYXRoMjYxODIiLz4mI3hhOzwvc3ZnPg==;" vertex="1" parent="9ZSXqyVSEwkqPgxAhCas-58">
          <mxGeometry x="42.75" width="37" height="34.4" as="geometry" />
        </mxCell>
        <mxCell id="9ZSXqyVSEwkqPgxAhCas-57" value="&lt;div style=&quot;text-align: center&quot;&gt;&lt;span&gt;&lt;font face=&quot;helvetica&quot;&gt;Push message to tokens request&lt;/font&gt;&lt;/span&gt;&lt;/div&gt;" style="text;whiteSpace=wrap;html=1;" vertex="1" parent="9ZSXqyVSEwkqPgxAhCas-58">
          <mxGeometry x="-16" y="34.4" width="160" height="30" as="geometry" />
        </mxCell>
        <mxCell id="9ZSXqyVSEwkqPgxAhCas-60" style="edgeStyle=orthogonalEdgeStyle;rounded=1;orthogonalLoop=1;jettySize=auto;html=1;" edge="1" parent="1">
          <mxGeometry relative="1" as="geometry">
            <mxPoint x="411.3333333333335" y="291" as="targetPoint" />
            <mxPoint x="411" y="341" as="sourcePoint" />
            <Array as="points">
              <mxPoint x="411" y="316" />
            </Array>
          </mxGeometry>
        </mxCell>
        <mxCell id="9ZSXqyVSEwkqPgxAhCas-61" style="edgeStyle=orthogonalEdgeStyle;rounded=1;orthogonalLoop=1;jettySize=auto;html=1;" edge="1" parent="1">
          <mxGeometry relative="1" as="geometry">
            <mxPoint x="411.66666666666674" y="150" as="targetPoint" />
            <mxPoint x="412" y="210" as="sourcePoint" />
            <Array as="points">
              <mxPoint x="412" y="180" />
            </Array>
          </mxGeometry>
        </mxCell>
        <mxCell id="9ZSXqyVSEwkqPgxAhCas-62" value="&lt;span style=&quot;color: rgb(0 , 0 , 0) ; font-family: &amp;#34;helvetica&amp;#34; ; font-size: 11px ; font-style: normal ; font-weight: 400 ; letter-spacing: normal ; text-align: center ; text-indent: 0px ; text-transform: none ; word-spacing: 0px ; background-color: rgb(255 , 255 , 255) ; display: inline ; float: none&quot;&gt;Device token&lt;br&gt;&lt;/span&gt;" style="edgeStyle=orthogonalEdgeStyle;rounded=1;orthogonalLoop=1;jettySize=auto;html=1;entryX=0.25;entryY=0;entryDx=0;entryDy=0;" edge="1" parent="1" target="9ZSXqyVSEwkqPgxAhCas-40">
          <mxGeometry relative="1" as="geometry">
            <mxPoint x="340" y="98" as="sourcePoint" />
          </mxGeometry>
        </mxCell>
        <mxCell id="9ZSXqyVSEwkqPgxAhCas-63" value="&lt;span style=&quot;color: rgb(0 , 0 , 0) ; font-family: &amp;#34;helvetica&amp;#34; ; font-size: 11px ; font-style: normal ; font-weight: 400 ; letter-spacing: normal ; text-align: center ; text-indent: 0px ; text-transform: none ; word-spacing: 0px ; background-color: rgb(255 , 255 , 255) ; display: inline ; float: none&quot;&gt;Device token&lt;/span&gt;" style="edgeStyle=orthogonalEdgeStyle;rounded=1;orthogonalLoop=1;jettySize=auto;html=1;entryX=0.75;entryY=0;entryDx=0;entryDy=0;" edge="1" parent="1" target="9ZSXqyVSEwkqPgxAhCas-43">
          <mxGeometry relative="1" as="geometry">
            <mxPoint x="470" y="98" as="sourcePoint" />
          </mxGeometry>
        </mxCell>
      </root>
    </mxGraphModel>
  </diagram>
</mxfile>
